<?xml version="1.0" encoding="UTF-8"?> <svg xmlns="http://www.w3.org/2000/svg" xmlns:xlink="http://www.w3.org/1999/xlink" id="Layer_1" data-name="Layer 1" viewBox="0 0 1920 1080"><defs><style>.cls-1{opacity:0.2;}.cls-2{fill:url(#linear-gradient);}.cls-3{fill:url(#linear-gradient-2);}.cls-4{fill:url(#linear-gradient-3);}.cls-5{fill:url(#linear-gradient-4);}.cls-6{fill:url(#linear-gradient-5);}.cls-7{fill:url(#linear-gradient-6);}.cls-8{opacity:0.15;}.cls-10,.cls-11,.cls-12,.cls-13,.cls-14,.cls-9{fill:none;stroke-miterlimit:10;stroke-width:4px;}.cls-9{stroke:url(#linear-gradient-7);}.cls-10{stroke:url(#linear-gradient-8);}.cls-11{stroke:url(#linear-gradient-9);}.cls-12{stroke:url(#linear-gradient-10);}.cls-13{stroke:url(#linear-gradient-11);}.cls-14{stroke:url(#linear-gradient-12);}</style><linearGradient id="linear-gradient" x1="812.97" y1="1411.77" x2="857.27" y2="453.96" gradientUnits="userSpaceOnUse"><stop offset="0" stop-color="#fff"></stop><stop offset="0" stop-color="#bccc1f"></stop><stop offset="1" stop-color="#97ab37"></stop></linearGradient><linearGradient id="linear-gradient-2" x1="671.69" y1="1405.23" x2="716" y2="447.43" xlink:href="#linear-gradient"></linearGradient><linearGradient id="linear-gradient-3" x1="337.84" y1="1389.79" x2="382.14" y2="431.99" xlink:href="#linear-gradient"></linearGradient><linearGradient id="linear-gradient-4" x1="275.88" y1="1386.93" x2="320.18" y2="429.12" xlink:href="#linear-gradient"></linearGradient><linearGradient id="linear-gradient-5" x1="888.69" y1="1415.27" x2="932.99" y2="457.47" xlink:href="#linear-gradient"></linearGradient><linearGradient id="linear-gradient-6" x1="406.4" y1="1392.96" x2="450.7" y2="435.16" xlink:href="#linear-gradient"></linearGradient><linearGradient id="linear-gradient-7" x1="1892.54" y1="680.36" x2="1904.21" y2="427.96" xlink:href="#linear-gradient"></linearGradient><linearGradient id="linear-gradient-8" x1="1817.78" y1="263.15" x2="1827.12" y2="61.24" xlink:href="#linear-gradient"></linearGradient><linearGradient id="linear-gradient-9" x1="1576.44" y1="626.47" x2="1585.05" y2="440.25" xlink:href="#linear-gradient"></linearGradient><linearGradient id="linear-gradient-10" x1="1545.57" y1="464.63" x2="1554.99" y2="260.92" xlink:href="#linear-gradient"></linearGradient><linearGradient id="linear-gradient-11" x1="1951.12" y1="464.27" x2="1960.65" y2="258.38" xlink:href="#linear-gradient"></linearGradient><linearGradient id="linear-gradient-12" x1="1639.64" y1="272.97" x2="1649.12" y2="67.87" xlink:href="#linear-gradient"></linearGradient></defs><g id="nv35mk" class="cls-1"><path class="cls-2" d="M724.35,953.05c1.23,22.5,2.47,45,3.72,68,1.85.14,3.51.39,5.17.39,55.18,0,110.36.36,165.53-.18,35.36-.35,70.2-5,101.89-22.11,13.12-7.09,25.08-16.34,37.26-24.4-.68,1.37-1.73,3.65-2.91,5.86-39,72.93-77.46,146.16-117.26,218.66-19.75,36-52.43,52.76-93,53.53-31.44.6-62.89,0-94.34,0-.93,0-1.87.22-3.51.42q-1.29,36.69-2.58,73.26l-.95.51c-1.11-1.83-2.3-3.61-3.33-5.49q-48.84-89.31-97.72-178.61c-1.78-3.23-1.91-5.6,0-8.94q49.26-88.42,98.25-177c.81-1.45,1.79-2.81,2.68-4.21Z"></path><path class="cls-3" d="M487.81,406.15c18.5,0,37,.11,55.5,0,65.39-.46,130.79-1.93,196.16-1.17,40.82.48,70.64,21.91,90.39,57,16.15,28.7,31.42,57.91,47.47,87.61L943,515.52c-1.54,3.05-2.16,4.53-3,5.88Q887.44,608.25,835,695.13c-2.53,4.2-5.19,5.63-10,5.57q-96.63-1.17-193.26-2c-3,0-6,0-9,0l-.39-1.45,56.49-36.56c-5-9.19-9.71-18-14.48-26.72-23.82-43.66-47.24-87.55-71.63-130.89-16.29-28.94-36.19-55.34-64.11-74.24-10.92-7.39-23.31-12.63-35.06-18.77a58.59,58.59,0,0,0-5.81-2.32Z"></path><path class="cls-4" d="M151.31,972.64c12,8.6,24.19,18.82,37.73,26.7,25.94,15.1,54.65,20.26,84.49,20.28,43.2,0,86.41.33,129.62.61q70.89.45,141.79,1.07c1.53,0,3.06.13,5,.21v231.85H526.62c-48.42-.1-96.85.38-145.26-.52-27.59-.52-54.5-5.83-78.48-20.8-11.09-6.92-20.07-15.82-26.43-27.65Q214.92,1090,152.93,975.94C152.11,974.44,151.43,972.88,151.31,972.64Z"></path><path class="cls-5" d="M200.89,757.46l-59.83-46.89.44-1.67c5.87,0,11.74,0,17.61,0q96.36-.72,192.72-1.48c3.36,0,6,.08,8,3.83q51,95.06,102.33,189.94c.52.95.88,2,2.06,4.66l-61.18-33c-3,4.81-5.85,9.32-8.64,13.88q-35.32,57.74-70.72,115.43c-1.13,1.84-3.53,4.08-5.38,4.12-32.25.58-64.53.2-96-8.19-36.52-9.75-63.19-32.43-80.47-65.65-10.93-21-10.31-42.49,1-63.76,18.85-35.39,37.22-71,55.78-106.59C199.4,760.77,200,759.36,200.89,757.46Z"></path><path class="cls-6" d="M769.33,825.64,967,705c4.5,8.69,8.87,17,13.11,25.33,24.6,48.47,49.59,96.74,73.51,145.54,8.25,16.82,6.14,35.08.16,52.49-7.26,21.12-22.46,35.63-41.12,46.81-27.85,16.69-58.57,24.59-90.5,27.66-17.23,1.66-34.63,1.52-52,1.77a9,9,0,0,1-6.64-3.95q-46.8-86.13-93.19-172.48C770.11,827.62,769.93,827.07,769.33,825.64Z"></path><path class="cls-7" d="M491.39,719,292,600.88c7.33-11.35,14.29-22.19,21.31-33,26-40.13,52.84-79.77,77.84-120.53,16.94-27.6,56.18-40.38,87.48-29,25.73,9.39,46.25,26,64.51,45.7,21.37,23.11,38.36,49.23,52.35,77.37,1.62,3.26,1.73,5.71-.3,9q-50.4,81.76-100.52,163.69C493.73,715.61,492.74,717,491.39,719Z"></path></g><g id="nv35mk-2" data-name="nv35mk" class="cls-8"><path class="cls-9" d="M1830.07,427c.82,14.9,1.64,29.8,2.47,45,1.23.1,2.33.26,3.43.26,36.55,0,73.11.24,109.66-.12,23.43-.23,46.51-3.3,67.51-14.65,8.69-4.7,16.61-10.82,24.68-16.16-.44.9-1.14,2.41-1.92,3.87-25.84,48.33-51.32,96.85-77.69,144.88-13.09,23.84-34.74,35-61.64,35.47-20.83.39-41.67,0-62.5,0a21.63,21.63,0,0,0-2.33.28q-.85,24.3-1.7,48.53l-.64.34c-.73-1.21-1.52-2.39-2.2-3.63q-32.35-59.18-64.75-118.34a5.32,5.32,0,0,1,0-5.92q32.64-58.59,65.1-117.28c.53-1,1.18-1.86,1.77-2.79Z"></path><path class="cls-10" d="M1673.36,64.67c12.26,0,24.51.08,36.77,0,43.32-.3,86.65-1.28,130-.77,27.05.31,46.8,14.51,59.89,37.78,10.7,19,20.81,38.36,31.45,58l43.5-22.58c-1,2-1.43,3-2,3.9q-34.83,57.54-69.61,115.1c-1.68,2.79-3.44,3.74-6.65,3.7q-64-.78-128-1.3c-2,0-4,0-6,0l-.26-1,37.43-24.22c-3.3-6.09-6.43-11.91-9.59-17.71-15.78-28.92-31.3-58-47.46-86.71-10.79-19.18-24-36.67-42.48-49.19-7.23-4.9-15.44-8.37-23.22-12.44a37.6,37.6,0,0,0-3.85-1.53Z"></path><path class="cls-11" d="M1450.41,440c8,5.7,16,12.47,25,17.69,17.19,10,36.21,13.42,56,13.44,28.63,0,57.26.22,85.89.4q47,.3,93.93.71c1,0,2,.09,3.34.15V626h-15.47c-32.08-.06-64.17.26-96.24-.34-18.28-.35-36.11-3.86-52-13.78a48.4,48.4,0,0,1-17.51-18.32q-40.75-75.76-81.84-151.36C1451,441.19,1450.49,440.15,1450.41,440Z"></path><path class="cls-12" d="M1483.26,297.43l-39.64-31.07.29-1.1c3.89,0,7.78,0,11.67,0q63.84-.47,127.68-1c2.23,0,4,.06,5.31,2.54q33.79,63,67.79,125.84c.34.63.59,1.31,1.37,3.09l-40.54-21.85c-2,3.19-3.87,6.18-5.72,9.2q-23.4,38.25-46.86,76.47c-.75,1.22-2.34,2.71-3.56,2.73-21.37.39-42.75.14-63.57-5.42-24.2-6.46-41.87-21.49-53.31-43.5-7.24-13.92-6.83-28.15.67-42.24,12.5-23.45,24.67-47.07,37-70.62C1482.27,299.62,1482.67,298.69,1483.26,297.43Z"></path><path class="cls-13" d="M1859.88,342.6l131-80c3,5.76,5.88,11.25,8.69,16.78,16.29,32.11,32.85,64.1,48.7,96.43,5.47,11.14,4.07,23.24.11,34.77-4.81,14-14.88,23.61-27.25,31-18.45,11.05-38.8,16.29-60,18.33-11.41,1.09-22.94,1-34.43,1.16a6,6,0,0,1-4.4-2.61q-31-57.06-61.74-114.27C1860.39,343.91,1860.27,343.55,1859.88,342.6Z"></path><path class="cls-14" d="M1675.73,272l-132.14-78.28c4.86-7.52,9.47-14.7,14.12-21.86,17.24-26.59,35-52.86,51.58-79.86,11.22-18.29,37.22-26.75,58-19.18,17,6.22,30.64,17.19,42.74,30.28,14.16,15.31,25.42,32.61,34.69,51.26a5.37,5.37,0,0,1-.2,6q-33.39,54.17-66.6,108.45C1677.28,269.7,1676.62,270.63,1675.73,272Z"></path></g></svg> 