<?xml version="1.0" encoding="UTF-8"?><svg id="Layer_1" xmlns="http://www.w3.org/2000/svg" viewBox="0 0 1480.33 376.39"><defs><style>.cls-1{fill:#fff;}.cls-2{fill:#4aabc8;}</style></defs><g><path class="cls-1" d="M636.73,61.14c-4.11-2.67-9.37-4.93-15.79-6.78-6.42-1.85-12.19-2.77-17.33-2.77-8.52,0-13.14,2.31-13.86,6.93-.51,3.39,1.31,6.39,5.47,9.01,4.16,2.62,9.78,5.21,16.86,7.78,12.73,4.52,22.25,9.57,28.57,15.17,6.31,5.6,9.26,13.12,8.85,22.56-.31,5.44-1.69,10.16-4.16,14.17-2.46,4-5.72,7.08-9.78,9.24-4.06,2.16-8.34,3.72-12.86,4.7-4.52,.97-9.39,1.46-14.63,1.46-17.46,0-33.52-4.72-48.2-14.17l11.24-20.17c4.21,2.98,10.14,5.52,17.79,7.62,7.65,2.11,14.35,3.16,20.1,3.16,8.32,0,13.04-2.1,14.17-6.31,.51-1.85,.23-3.64-.85-5.39-1.08-1.74-2.75-3.26-5.01-4.54-2.26-1.28-4.08-2.23-5.47-2.85-1.39-.62-2.85-1.23-4.39-1.85-8.21-2.98-14.94-5.72-20.17-8.24-5.24-2.51-9.91-5.36-14.01-8.55-4.11-3.18-7.01-6.67-8.7-10.47-1.69-3.8-2.44-8.16-2.23-13.09,.51-9.65,4.44-16.91,11.78-21.79,7.34-4.88,16.5-7.31,27.49-7.31,15.5,0,30.23,4.21,44.2,12.63l-9.09,19.87Z"/><path class="cls-1" d="M669.53,31.88h92.86v17.09l-58.67,68.99h58.67v21.71h-92.86v-17.09l58.83-68.99h-58.83V31.88Z"/><path class="cls-1" d="M784.88,31.88h81.31v20.33h-56.83v24.02h44.97v20.33h-44.97v22.79h56.83v20.33h-81.31V31.88Zm36.96-7.39h-12.63c5.85-9.75,10.21-17.91,13.09-24.49h19.56c-.41,1.75-2.88,5.62-7.39,11.63-4.52,6.01-8.73,10.29-12.63,12.86Z"/><path class="cls-1" d="M895.53,126.74c-10.32-10.37-15.48-23.87-15.48-40.5s5.16-30.13,15.48-40.5c10.32-10.37,23.79-15.55,40.42-15.55,18.38,0,32.8,6.21,43.27,18.63l-18.48,15.4c-6.06-7.08-14.32-10.63-24.79-10.63-9.55,0-17.32,3.06-23.33,9.16-6.01,6.11-9.01,13.94-9.01,23.48s3,17.38,9.01,23.48c6.01,6.11,13.78,9.16,23.33,9.16,10.47,0,18.74-3.54,24.79-10.63l18.48,15.4c-10.47,12.42-24.9,18.63-43.27,18.63-16.63,0-30.11-5.18-40.42-15.55Z"/><path class="cls-1" d="M999.24,31.88h24.49v44.35h40.96V31.88h24.49v107.8h-24.49v-43.12h-40.96v43.12h-24.49V31.88Z"/><path class="cls-1" d="M1111.66,31.88h81.31v20.33h-56.83v24.02h44.97v20.33h-44.97v22.79h56.83v20.33h-81.31V31.88Z"/><path class="cls-1" d="M1215.46,139.68V31.88h24.49l46.51,66.84V31.88h24.49v107.8h-24.49l-46.51-66.84v66.84h-24.49Z"/><path class="cls-1" d="M1371.3,105.64l-42.97-73.77h26.18l28.95,49.13,28.95-49.13h26.33l-42.97,73.77v34.03h-24.49v-34.03Z"/><path class="cls-1" d="M1455.85,139.68V31.88h24.49v107.8h-24.49Z"/></g><g><path class="cls-1" d="M562.5,177.37h81.31v20.33h-56.83v24.02h44.97v20.33h-44.97v22.79h56.83v20.33h-81.31v-107.8Z"/><path class="cls-1" d="M657.67,231.73c0-16.63,5.39-30.13,16.17-40.5,10.78-10.37,24.79-15.55,42.04-15.55,18.89,0,33.57,6.21,44.04,18.63l-18.48,15.4c-6.26-7.08-15.15-10.63-26.64-10.63-9.75,0-17.63,3.03-23.64,9.09-6.01,6.06-9.01,13.91-9.01,23.56s3.13,17.69,9.39,23.79c6.26,6.11,14.83,9.16,25.72,9.16,7.9,0,14.48-1.69,19.71-5.08v-27.72h24.49v39.12h-.15c-10.37,11.19-25.05,16.79-44.04,16.79-17.86,0-32.26-5.16-43.2-15.48-10.93-10.32-16.4-23.84-16.4-40.58Z"/><path class="cls-1" d="M813.98,251.14l-42.97-73.77h26.18l28.95,49.13,28.95-49.13h26.33l-42.97,73.77v34.03h-24.49v-34.03Z"/><path class="cls-1" d="M898.53,177.37h81.31v20.33h-56.83v24.02h44.97v20.33h-44.97v22.79h56.83v20.33h-81.31v-107.8Z"/><path class="cls-1" d="M999.86,177.37h89.94v21.71h-32.65v86.09h-24.49v-86.09h-32.8v-21.71Z"/><path class="cls-1" d="M1109.82,177.37h81.31v20.33h-56.83v24.02h44.97v20.33h-44.97v22.79h56.83v20.33h-81.31v-107.8Z"/><path class="cls-1" d="M1238.1,285.17h-24.49v-107.8h24.49l34.19,61.29,34.19-61.29h24.49v107.8h-24.49v-61.29l-29.57,52.98h-9.24l-29.57-52.98v61.29Z"/></g><g><path class="cls-1" d="M569.19,354.89v-29.98h-7.11v29.76c0,12.68,8.52,21.2,21.19,21.2s21.63-8.32,21.63-21.2v-29.76h-7.11v29.98c0,8.47-5.69,14.16-14.16,14.16s-14.45-5.69-14.45-14.16Z"/><polygon class="cls-1" points="617.48 324.92 617.48 374.62 624.59 374.62 624.59 335.99 652.39 374.62 659.87 374.62 659.87 324.92 652.76 324.92 652.76 363.55 624.96 324.92 617.48 324.92"/><rect class="cls-1" x="673.98" y="324.92" width="7.11" height="49.71"/><polygon class="cls-1" points="693.79 324.92 686.6 324.92 708.55 374.62 716.48 374.62 738.42 324.92 731.24 324.92 712.52 367.32 693.79 324.92"/><polygon class="cls-1" points="752.59 352.96 776.37 352.96 776.37 347.31 752.59 347.31 752.59 330.56 782.01 330.56 782.01 324.92 745.48 324.92 745.48 374.62 782.01 374.62 782.01 368.98 752.59 368.98 752.59 352.96"/><path class="cls-1" d="M822.04,357.98c4.96-3.02,7.68-8.35,7.68-15.01,0-10.96-6.94-18.05-17.68-18.05h-20.24v49.71h7.11v-13.98h12.69c1.14,0,2.01-.08,2.83-.27l.56-.13,7.97,14.38h7.48l-9.02-16.27,.63-.38Zm-11.24-2.98h-11.89v-24.36h11.89c7.2,0,12.03,4.84,12.03,12.03s-4.84,12.33-12.03,12.33Z"/><path class="cls-1" d="M860.62,347.06c-7.36-2.31-14.12-5.19-13.7-10.59,.25-4,4.24-6.49,10.42-6.49,.52,0,1.08,.04,1.43,.06,.12,0,.21,.01,.26,.01,6.74,.63,11.09,2.9,13.38,4.48l3.16-5.32c-5.49-3.66-11.94-5.7-18.24-5.76h-.25c-8.29,0-17.3,3.4-17.72,12.96-.35,8.59,6.82,12.64,17.69,16.07,6.92,2.18,13.92,5.15,13.26,10.62-.51,3.87-4.49,6.09-10.93,6.09s-12.75-1.73-17.57-5.02l-3.49,5.44c6.39,4.25,13.52,6.4,21.21,6.4,5.29,0,17.63-1.27,18.05-13.02,.27-8.67-6.29-12.52-16.96-15.93Z"/><rect class="cls-1" x="885.91" y="324.92" width="7.11" height="49.71"/><polygon class="cls-1" points="916.65 374.62 923.76 374.62 923.76 331.15 940.52 331.15 940.52 324.92 899.89 324.92 899.89 331.15 916.65 331.15 916.65 374.62"/><polygon class="cls-1" points="952.49 324.92 944.9 324.92 965.46 359 965.46 374.62 972.58 374.62 972.58 359 972.68 358.82 993.14 324.92 985.55 324.92 969.02 352.04 952.49 324.92"/><path class="cls-1" d="M1040.01,324.11c-15.48,0-25.88,10.4-25.88,25.88s10.4,25.88,25.88,25.88,25.8-10.4,25.8-25.88-10.37-25.88-25.8-25.88Zm0,44.94c-11.4,0-19.06-7.66-19.06-19.06s7.66-19.06,19.06-19.06,19.06,7.66,19.06,19.06-7.66,19.06-19.06,19.06Z"/><polygon class="cls-1" points="1105.18 347.31 1081.39 347.31 1081.39 330.56 1110.82 330.56 1110.82 324.92 1074.28 324.92 1074.28 374.62 1081.39 374.62 1081.39 352.96 1105.18 352.96 1105.18 347.31"/><path class="cls-1" d="M1141.99,349.99c0-11.4,7.63-19.06,18.99-19.06,5.66,0,10.78,1.92,14.18,5.29l5.36-4.45c-4.65-4.94-11.48-7.65-19.32-7.65-15.79,0-26.39,10.4-26.39,25.88s10.75,25.88,26.76,25.88c8.08,0,15.05-2.72,19.66-7.66v-17.38h-7.11v14.33l-.3,.23c-3.28,2.5-7.51,3.81-12.25,3.81-11.89,0-19.57-7.54-19.57-19.21Z"/><polygon class="cls-1" points="1225.44 324.92 1208.91 352.04 1192.38 324.92 1184.79 324.92 1205.35 359 1205.35 374.62 1212.47 374.62 1212.47 359 1212.57 358.82 1233.03 324.92 1225.44 324.92"/><path class="cls-1" d="M1273.58,309.55h-6.15c-1.32,2.78-3.3,6.45-5.44,10.11h3.25c3.46-2.56,7.08-7.87,8.34-10.11Z"/><path class="cls-1" d="M1252.36,309.55c-1.22,2.69-3.14,6.3-5.38,10.11h3.25c3.42-2.54,7.02-7.86,8.28-10.11h-6.15Z"/><path class="cls-1" d="M1256.77,324.11c-15.48,0-25.88,10.4-25.88,25.88s10.4,25.88,25.88,25.88,25.8-10.4,25.8-25.88-10.37-25.88-25.8-25.88Zm0,44.94c-11.4,0-19.06-7.66-19.06-19.06s7.66-19.06,19.06-19.06,19.06,7.66,19.06,19.06-7.66,19.06-19.06,19.06Z"/><path class="cls-1" d="M1322.13,358.36l.63-.38c4.96-3.02,7.68-8.35,7.68-15.01,0-10.96-6.94-18.05-17.68-18.05h-20.24v49.71h7.11v-13.98h12.69c1.14,0,2.01-.08,2.83-.27l.56-.13,7.97,14.38h7.48l-9.02-16.27Zm-10.62-3.36h-11.89v-24.36h11.89c7.2,0,12.03,4.84,12.03,12.03s-4.84,12.33-12.03,12.33Z"/></g><path class="cls-1" d="M82.98,210.33v-19.89c91.02,0,165.07-74.05,165.07-165.07h19.89c0,101.99-82.97,184.96-184.96,184.96Z"/><path class="cls-1" d="M82.98,253.33v-19.89c114.73,0,208.07-93.34,208.07-208.07h19.89c0,60.89-23.71,118.13-66.77,161.19s-100.3,66.77-161.19,66.77Z"/><rect class="cls-1" y="272.69" width="308.31" height="19.89"/><rect class="cls-1" y="356.5" width="308.31" height="19.89"/><g><rect class="cls-1" x="350.67" y="356.5" width="83.64" height="19.89"/><rect class="cls-1" x="1377.34" y="356.5" width="100.71" height="19.89"/><rect class="cls-1" x="350.67" y="315.23" width="83.64" height="19.89"/><rect class="cls-1" x="350.67" y="273.95" width="83.64" height="19.89"/><rect class="cls-1" x="350.67" y="232.67" width="83.64" height="19.89"/><rect class="cls-1" x="350.67" y="191.39" width="83.64" height="19.89"/><rect class="cls-1" x="350.67" y="150.11" width="83.64" height="19.89"/><rect class="cls-1" x="350.67" y="108.83" width="83.64" height="19.89"/><rect class="cls-1" x="350.67" y="67.56" width="83.64" height="19.89"/><rect class="cls-1" x="351.27" y="26.28" width="83.64" height="19.89"/></g><rect class="cls-2" x="82.98" y="314.17" width="225.33" height="19.89"/></svg>