<?xml version="1.0" encoding="UTF-8"?>
<svg id="szel" xmlns="http://www.w3.org/2000/svg" xmlns:xlink="http://www.w3.org/1999/xlink" width="170" height="150" viewBox="0 0 170 300">
  <defs>
    <style>
      .cls-1 {
        fill: url(#Névtelen_színátmenet_2-3);
      }

      .cls-1, .cls-2, .cls-3 {
        stroke: #000;
        stroke-miterlimit: 10;
      }

      .cls-2 {
        fill: url(#Névtelen_színátmenet_2-2);
      }

      .cls-3 {
        fill: url(#Névtelen_színátmenet_2-4);
      }

      .cls-4 {
        fill: url(#Névtelen_színátmenet_2);
      }

      .cls-5 {
        fill: url(#Névtelen_színátmenet_2-5);
      }
       #szarny1 {
          animation: wheel 2s infinite linear;
          
          transform-box: fill-box;
      }
      #szarny2 {
          animation: wheel 2s infinite linear;
          transform-origin: top right;
          transform-box: fill-box;
      }
      #szarny3 {
          animation: wheel 2s infinite linear;
          transform-origin: bottom;
          transform-box: fill-box;
      }
      @keyframes wheel {
          from {
              transform: rotate(0deg);
          }
          to {
              transform: rotate(360deg);
          }
      }
    </style>
    <linearGradient id="Névtelen_színátmenet_2" data-name="Névtelen színátmenet 2" x1="73.757" y1="185.88" x2="88.756" y2="185.88" gradientTransform="matrix(1, 0, 0, 1, 0, 0)" gradientUnits="userSpaceOnUse">
      <stop offset="0" stop-color="#fff"/>
      <stop offset=".204" stop-color="#fcfcfc"/>
      <stop offset=".355" stop-color="#f2f2f2"/>
      <stop offset=".49" stop-color="#e2e2e2"/>
      <stop offset=".615" stop-color="#cbcbcb"/>
      <stop offset=".734" stop-color="#aeaeae"/>
      <stop offset=".847" stop-color="#8a8a8a"/>
      <stop offset=".954" stop-color="#606060"/>
      <stop offset="1" stop-color="#4c4c4c"/>
    </linearGradient>
    <linearGradient id="Névtelen_színátmenet_2-2" data-name="Névtelen színátmenet 2" x1="238.207" y1="-667.365" x2="274.542" y2="-667.365" gradientTransform="translate(118.406 -668.816) rotate(161.902)" xlink:href="#Névtelen_színátmenet_2"/>
    <linearGradient id="Névtelen_színátmenet_2-3" data-name="Névtelen színátmenet 2" x1="167.17" y1="31.166" x2="203.505" y2="31.166" gradientTransform="translate(-76.301 -33.831) rotate(42.596)" xlink:href="#Névtelen_színátmenet_2"/>
    <linearGradient id="Névtelen_színátmenet_2-4" data-name="Névtelen színátmenet 2" x1="-77.132" y1="-44.917" x2="-40.797" y2="-44.917" gradientTransform="translate(179.962 87.384) rotate(-66.947)" xlink:href="#Névtelen_színátmenet_2"/>
    <linearGradient id="Névtelen_színátmenet_2-5" data-name="Névtelen színátmenet 2" x1="71.166" y1="93.485" x2="91.256" y2="93.485" xlink:href="#Névtelen_színátmenet_2"/>
  </defs>
  <g id="oszlop">
    <rect class="cls-4" x="73.757" y="93.88" width="15" height="184"/>
    <path d="M88.256,94.38v183h-14V94.38h14m1-1h-16v185h16V93.38h0Z"/>
  </g>
  <g id="szarnyak">
    <path id="szarny3" class="cls-2" d="M75.927,.662c-38.133,5.403,5.233,91.659,5.233,91.659,0,0,27.446-96.29-5.233-91.659Z"/>
    <path id="szarny2" class="cls-1" d="M3.215,141.662c23.377,30.608,77.367-49.428,77.367-49.428,0,0-97.4,23.199-77.367,49.428Z"/>
    <path id="szarny1" class="cls-3" d="M153.076,148.746c21.025-32.269-72.461-56.376-72.461-56.376,0,0,54.443,84.029,72.461,56.376Z"/>
  </g>
  <g id="kozep">
    <path class="cls-5" d="M81.211,103.38c-4.757,0-9.93-3.1-10.045-9.905,.116-6.787,5.289-9.886,10.045-9.886s9.93,3.1,10.045,9.904c-.116,6.787-5.288,9.887-10.045,9.887Z"/>
    <path d="M81.213,83.089v1c4.52,0,9.435,2.945,9.544,9.378-.11,6.467-5.025,9.412-9.545,9.412s-9.436-2.946-9.545-9.379c.11-6.466,5.025-9.411,9.545-9.412v-1m0,0c-5.213,0-10.427,3.465-10.545,10.395,.117,6.931,5.331,10.396,10.545,10.396s10.427-3.465,10.545-10.395c-.117-6.931-5.331-10.396-10.545-10.395h0Z"/>
  </g>
</svg>