<svg id="szel" xmlns="http://www.w3.org/2000/svg" xmlns:xlink="http://www.w3.org/1999/xlink" viewBox="0 0 312.31 554.26"><defs><style>.cls-1{fill:url(#Névtelen_színátmenet_2-3);}.cls-1,.cls-2,.cls-3{stroke:#000;stroke-miterlimit:10;}.cls-2{fill:url(#Névtelen_színátmenet_2-2);}.cls-3{fill:url(#Névtelen_színátmenet_2-4);}.cls-4{fill:url(#Névtelen_színátmenet_2);}.cls-5{fill:url(#Névtelen_színátmenet_2-5);}</style><linearGradient id="Névtelen_színátmenet_2" x1="145.51" y1="375.76" x2="176.51" y2="375.76" gradientTransform="matrix(1, 0, 0, 1, 0, 0)" gradientUnits="userSpaceOnUse"><stop offset="0" stop-color="#fff"/><stop offset=".2" stop-color="#fcfcfc"/><stop offset=".36" stop-color="#f2f2f2"/><stop offset=".49" stop-color="#e2e2e2"/><stop offset=".62" stop-color="#cbcbcb"/><stop offset=".73" stop-color="#aeaeae"/><stop offset=".85" stop-color="#8a8a8a"/><stop offset=".95" stop-color="#606060"/><stop offset="1" stop-color="#4c4c4c"/></linearGradient><linearGradient id="Névtelen_színátmenet_2-2" x1="195.98" y1="-176.62" x2="268.65" y2="-176.62" gradientTransform="translate(326.52 -150.2) rotate(161.9)" xlink:href="#Névtelen_színátmenet_2"/><linearGradient id="Névtelen_színátmenet_2-3" x1="79.67" y1="199.15" x2="152.34" y2="199.15" gradientTransform="translate(126.98 -3.52) rotate(42.6)" xlink:href="#Névtelen_színátmenet_2"/><linearGradient id="Névtelen_színátmenet_2-4" x1="133.62" y1="217.07" x2="206.29" y2="217.07" gradientTransform="translate(-35.71 312.98) rotate(-66.95)" xlink:href="#Névtelen_színátmenet_2"/><linearGradient id="Névtelen_színátmenet_2-5" x1="131.51" y1="183.76" x2="189.51" y2="183.76" xlink:href="#Névtelen_színátmenet_2"/></defs><g id="oszlop"><rect class="cls-4" x="145.51" y="197.76" width="31" height="356"/><path d="M176.01,198.26v355h-30V198.26h30m1-1h-32v357h32V197.26h0Z"/></g><g id="forgat"><path id="szarny3" class="cls-2" d="M148.35,.82c-76.27,10.81,10.47,183.32,10.47,183.32,0,0,54.89-192.58-10.47-183.32Z"/><path id="szarny2" class="cls-1" d="M5.93,275.82c46.75,61.22,154.73-98.86,154.73-98.86,0,0-194.8,46.4-154.73,98.86Z"/><path id="szarny1" class="cls-3" d="M305.65,290.99c42.05-64.54-144.92-112.75-144.92-112.75,0,0,108.89,168.06,144.92,112.75Z"/><g id="kozep"><path class="cls-5" d="M160.51,212.34c-13.73,0-28.67-8.95-29-28.59,.34-19.62,15.27-28.57,29-28.57s28.67,8.95,29,28.59c-.33,19.63-15.27,28.57-29,28.57Z"/><path d="M160.52,154.68v1h0c13.5,0,28.17,8.79,28.5,28.06-.33,19.31-15,28.1-28.5,28.1s-28.17-8.79-28.5-28.07c.33-19.3,15-28.1,28.5-28.1v-1m0,0c-14.58,0-29.17,9.69-29.5,29.08,.33,19.39,14.91,29.08,29.5,29.08s29.17-9.69,29.5-29.08c-.33-19.39-14.91-29.08-29.5-29.08h0Z"/>
</g></g></svg>