<?xml version="1.0" encoding="UTF-8"?>
<svg id="Réteg_1" data-name="Réteg 1" xmlns="http://www.w3.org/2000/svg" viewBox="0 0 1921.028 895.367">
  <path d="M517.364,420.087l-31.734,5.916c-1.184,.221-1.765,1.573-1.111,2.584l13.644,21.086c.661,1.021,2.151,1.033,2.828,.022l18.09-27.002c.834-1.245-.243-2.881-1.717-2.606"/>
  <path d="M5.023,895.076c-1.511,.649-3.323,.194-4.332-1.191-1.171-1.607-.817-3.863,.791-5.036,5.304-3.861,10.484-8.167,15.396-12.795,1.447-1.365,3.73-1.296,5.095,.152,1.365,1.447,1.296,3.728-.152,5.094-5.13,4.836-10.547,9.335-16.095,13.378-.224,.161-.458,.293-.703,.398m29.831-27.976c-1.216,.522-2.675,.353-3.755-.558-1.519-1.286-1.707-3.56-.421-5.078,4.178-4.94,8.301-10.324,12.249-16.008,1.137-1.634,3.383-2.04,5.017-.903,1.634,1.136,2.038,3.383,.903,5.016-4.081,5.871-8.342,11.437-12.669,16.548-.371,.443-.828,.77-1.324,.983m23.478-33.577c-1.016,.437-2.221,.403-3.248-.201-1.717-1.005-2.292-3.213-1.287-4.932,3.288-5.604,6.471-11.438,9.731-17.829,.908-1.773,3.078-2.476,4.848-1.571,1.774,.905,2.478,3.073,1.574,4.848-3.327,6.516-6.576,12.47-9.935,18.2-.403,.687-1.002,1.193-1.683,1.485m273.353-135.889c-2.37,1.019-4.81,1.956-7.259,2.79-1.881,.64-3.931-.368-4.572-2.252-.64-1.882,.403-3.92,2.252-4.573,6.233-2.119,12.286-4.934,17.881-8.296,1.729-1.023,3.922-.475,4.947,1.233,1.023,1.705,.47,3.92-1.234,4.947-3.836,2.303-7.876,4.373-12.015,6.151m-26.995,7.019c-.339,.146-.707,.243-1.094,.279-4.893,.444-9.674,.43-14.219-.037-2.374-.248-4.794-.603-7.192-1.058-1.957-.374-3.239-2.259-2.869-4.214,.375-1.954,2.254-3.232,4.215-2.868,2.198,.418,4.415,.745,6.588,.972,4.08,.419,8.394,.43,12.82,.025,1.984-.178,3.738,1.283,3.918,3.262,.146,1.596-.773,3.04-2.167,3.639m54.812-25.415c-1.326,.57-2.925,.307-3.997-.788-1.392-1.42-1.37-3.705,.051-5.096,4.889-4.791,8.844-9.964,11.76-15.373,.937-1.759,3.13-2.406,4.88-1.462,1.754,.944,2.406,3.13,1.462,4.881-3.258,6.049-7.65,11.801-13.056,17.101-.329,.321-.703,.566-1.1,.737m-282.402,117.803c-.907,.39-1.966,.408-2.933-.038-1.808-.832-2.597-2.971-1.765-4.78,2.879-6.247,5.636-12.492,8.322-18.676,.798-1.821,2.919-2.66,4.742-1.869,1.827,.793,2.662,2.916,1.871,4.743-2.708,6.231-5.487,12.523-8.389,18.819-.388,.841-1.059,1.462-1.848,1.801m187.586-99.367c-.85,.366-1.841,.405-2.767,.033-6.538-2.63-12.941-5.746-18.884-8.72-1.777-.891-2.501-3.055-1.607-4.836,.892-1.782,3.056-2.497,4.836-1.608,5.802,2.904,12.046,5.944,18.344,8.477,1.847,.742,2.741,2.84,1.999,4.688-.371,.921-1.077,1.604-1.921,1.966m113.281-54.118c-.543,.234-1.15,.337-1.778,.274-1.978-.2-3.426-1.964-3.227-3.945,.584-5.859,.75-12.22,.521-20.027-.058-1.99,1.513-3.646,3.498-3.706,1.99-.058,3.648,1.508,3.706,3.498,.237,8.119,.061,14.778-.553,20.952-.137,1.35-1,2.453-2.167,2.954m-284.403,115.886c-.876,.377-1.901,.407-2.849-.002-1.827-.785-2.671-2.904-1.883-4.733,2.776-6.448,5.525-12.758,8.302-18.854,.83-1.809,2.968-2.609,4.774-1.784,1.809,.824,2.61,2.962,1.785,4.772-2.759,6.05-5.486,12.313-8.243,18.715-.379,.882-1.068,1.535-1.886,1.886m131.017-79.535l-2.108-.968c-6.175-2.835-11.506-5.283-16.303-7.212-1.845-.747-2.74-2.845-1.997-4.692,.743-1.844,2.838-2.737,4.692-1.997,4.952,1.997,10.355,4.478,16.616,7.353l2.127,.975-1.363,3.344-1.664,3.197Zm-113.799,42.279c-.96,.412-2.093,.405-3.091-.116-1.766-.919-2.449-3.096-1.53-4.862,3.573-6.848,7.007-12.752,10.499-18.041,1.099-1.659,3.331-2.117,4.994-1.019,1.658,1.095,2.116,3.33,1.019,4.993-3.352,5.079-6.662,10.773-10.122,17.403-.399,.765-1.035,1.326-1.769,1.642m266.83-119.612c-.397,.171-.832,.274-1.289,.29-1.99,.074-3.661-1.479-3.734-3.467-.212-5.734-.369-13.301,.328-20.951,.179-1.981,1.934-3.44,3.915-3.261,1.981,.18,3.442,1.931,3.261,3.916-.657,7.242-.507,14.509-.303,20.029,.056,1.53-.849,2.873-2.178,3.444m-188.394,63.897c-.521,.224-1.103,.329-1.706,.281-5.74-.46-11.799,.21-19.068,2.103-1.924,.506-3.892-.652-4.394-2.578-.502-1.925,.637-3.893,2.578-4.394,8.069-2.107,14.889-2.843,21.457-2.318,1.984,.159,3.466,1.897,3.307,3.88-.111,1.381-.984,2.515-2.174,3.026m-55.461,21.925c-1.293,.555-2.849,.321-3.928-.717-1.43-1.385-1.468-3.668-.088-5.099,5.373-5.557,10.899-9.874,16.896-13.202,1.771-.948,3.938-.336,4.9,1.403,.967,1.742,.339,3.934-1.403,4.901-5.366,2.976-10.341,6.872-15.206,11.908-.345,.355-.744,.622-1.171,.806m248.367-126.336c-.796,.342-1.717,.401-2.599,.094-1.884-.649-2.88-2.7-2.229-4.58,2.032-5.88,4.958-12.343,8.697-19.213,.957-1.748,3.143-2.392,4.889-1.442,1.75,.953,2.394,3.139,1.442,4.889-3.549,6.52-6.316,12.615-8.218,18.117-.345,.999-1.084,1.749-1.982,2.135m19.11-36.197c-1.08,.465-2.364,.392-3.413-.302-1.659-1.099-2.118-3.334-1.019-4.994,4.118-6.228,8.277-12.068,11.8-16.964,1.167-1.616,3.416-1.981,5.031-.817,1.614,1.164,1.981,3.415,.817,5.03-3.483,4.837-7.588,10.608-11.636,16.725-.401,.609-.956,1.054-1.58,1.322m24.723-32.698c-1.267,.545-2.79,.334-3.868-.659-1.465-1.35-1.556-3.629-.208-5.093,4.306-4.669,9.253-9.61,14.705-14.688,1.443-1.356,3.733-1.279,5.092,.182,1.357,1.455,1.276,3.735-.182,5.093-5.317,4.955-10.134,9.763-14.314,14.298-.355,.386-.775,.674-1.225,.867m29.894-28.056c-1.423,.611-3.131,.254-4.18-.992-1.282-1.522-1.086-3.793,.438-5.076,4.917-4.139,10.155-8.397,16.012-13.013,1.569-1.234,3.828-.967,5.061,.598,1.23,1.563,.963,3.83-.599,5.061-5.796,4.571-10.974,8.78-15.836,12.868-.275,.233-.579,.418-.896,.554"/>
  <path d="M1778.158,161.162c8.23,.695,16.55,1.349,24.894,1.984,2.422,.215,4.571-1.639,4.761-4.081,.186-2.446-1.643-4.578-4.086-4.761-8.321-.637-16.617-1.293-24.826-1.98-.221-.021-.438-.021-.652-.008-2.159,.133-3.953,1.833-4.139,4.056-.205,2.439,1.606,4.584,4.047,4.789Z"/>
  <path d="M1744.573,38.686c7.601-1.9,15.719-3.807,24.13-5.657,2.391-.529,3.902-2.897,3.375-5.285-.476-2.163-2.455-3.607-4.6-3.475-.227,.014-.457,.045-.685,.094-8.492,1.873-16.692,3.797-24.373,5.716-2.376,.593-3.819,3.005-3.226,5.38,.595,2.377,2.985,3.835,5.38,3.227Z"/>
  <path d="M1728.359,156.17c8.076,.986,16.401,1.892,24.898,2.73,2.451,.262,4.607-1.542,4.849-3.978,.24-2.436-1.541-4.609-3.979-4.849-8.428-.835-16.683-1.727-24.692-2.709-.276-.035-.548-.039-.815-.023-2.092,.129-3.862,1.73-4.126,3.885-.297,2.432,1.434,4.647,3.865,4.943Z"/>
  <path d="M1745.557,312.726c.709,2.347,3.192,3.677,5.527,2.964,7.955-2.402,15.939-4.786,23.911-7.156,2.348-.696,3.686-3.166,2.988-5.513-.599-2.018-2.505-3.289-4.519-3.165-.33,.02-.663,.078-.994,.177-7.985,2.371-15.981,4.76-23.949,7.167-2.345,.707-3.672,3.181-2.964,5.527Z"/>
  <path d="M1652.523,72.262c6.155-3.699,13.453-7.378,21.688-10.94,2.247-.971,3.281-3.583,2.309-5.831-.761-1.762-2.531-2.778-4.342-2.666-.499,.031-1.002,.145-1.488,.357-8.594,3.715-16.242,7.575-22.732,11.472-2.1,1.262-2.781,3.986-1.518,6.086,1.26,2.101,3.988,2.779,6.084,1.521Z"/>
  <path d="M1675.365,142.713c-.536,2.389,.969,4.76,3.357,5.299,7.476,1.669,15.811,3.243,24.774,4.674,2.414,.385,4.692-1.261,5.079-3.68,.385-2.418-1.263-4.691-3.68-5.075-8.784-1.403-16.937-2.944-24.235-4.577-.418-.092-.834-.123-1.242-.098-1.919,.118-3.612,1.486-4.053,3.457Z"/>
  <path d="M1725.689,314.298c-.348,.021-.698,.084-1.043,.191-8.017,2.484-15.971,4.985-23.824,7.507-2.331,.749-3.616,3.247-2.867,5.579,.752,2.331,3.258,3.628,5.58,2.867,7.822-2.515,15.747-5.006,23.735-7.48,2.339-.725,3.649-3.209,2.925-5.549-.618-1.995-2.513-3.238-4.505-3.116Z"/>
  <path d="M1697.138,52.519c7.231-2.499,15.15-4.992,23.539-7.418,2.353-.678,3.707-3.136,3.029-5.489-.588-2.034-2.503-3.322-4.53-3.197-.321,.02-.642,.075-.965,.169-8.53,2.466-16.594,5.007-23.969,7.548-2.313,.798-3.544,3.325-2.744,5.641,.796,2.311,3.309,3.528,5.64,2.747Z"/>
  <path d="M1867.901,271.402c-7.767,2.43-15.714,4.868-23.799,7.314-2.343,.712-3.668,3.186-2.959,5.531,.709,2.346,3.183,3.653,5.531,2.959,8.11-2.457,16.084-4.901,23.875-7.34,2.338-.73,3.64-3.219,2.908-5.556-.621-1.988-2.511-3.226-4.5-3.103-.352,.022-.707,.086-1.056,.195Z"/>
  <path d="M1877.63,168.902c8.471,.741,16.747,1.524,24.753,2.367,2.428,.275,4.62-1.513,4.875-3.946,.255-2.437-1.511-4.619-3.948-4.876-8.053-.849-16.384-1.637-24.907-2.383-.224-.017-.446-.021-.667-.007-2.153,.133-3.944,1.823-4.138,4.039-.213,2.439,1.593,4.592,4.031,4.806Z"/>
  <path d="M1891.064,12.015c8.956-1.202,17.246-2.26,24.668-3.178,2.43-.302,4.158-2.513,3.858-4.946-.29-2.339-2.348-4.026-4.67-3.883-.091,.006-.183,.016-.274,.026-7.453,.919-15.777,1.98-24.767,3.193-2.427,.328-4.128,2.559-3.803,4.986s2.58,4.162,4.988,3.801Z"/>
  <path d="M1629.952,123.369c-1.456,1.968-1.04,4.747,.932,6.204,5.894,4.354,13.531,8.148,23.347,11.6,2.308,.813,4.839-.403,5.656-2.709,.812-2.311-.403-4.844-2.713-5.657-8.844-3.113-15.916-6.599-21.019-10.372-.873-.64-1.903-.92-2.906-.858-1.265,.078-2.485,.691-3.296,1.791Z"/>
  <path d="M1792.994,27.972c8.173-1.614,16.333-3.133,24.398-4.567,2.412-.426,4.019-2.73,3.592-5.143-.398-2.241-2.416-3.787-4.633-3.65-.169,.01-.339,.03-.508,.061-8.121,1.438-16.336,2.969-24.57,4.596-2.403,.474-3.965,2.809-3.491,5.211,.473,2.404,2.782,3.958,5.212,3.492Z"/>
  <path d="M1827.96,165.008c8.344,.615,16.65,1.231,24.856,1.866,2.447,.223,4.575-1.632,4.762-4.078,.19-2.441-1.636-4.577-4.079-4.765-8.215-.635-16.53-1.25-24.885-1.872-.205-.012-.406-.014-.608-.002-2.178,.134-3.977,1.86-4.143,4.101-.181,2.441,1.653,4.567,4.096,4.75Z"/>
  <path d="M1796.341,292.958c-2.349,.694-3.689,3.161-2.995,5.512,.694,2.348,3.151,3.681,5.512,2.995,8.031-2.374,16.015-4.738,23.912-7.089,2.349-.699,3.687-3.17,2.986-5.515-.599-2.018-2.507-3.287-4.519-3.163-.33,.02-.666,.078-.995,.177-7.894,2.35-15.874,4.711-23.9,7.084Z"/>
  <path d="M1841.884,19.256c8.433-1.353,16.652-2.615,24.564-3.779,2.424-.354,4.098-2.609,3.742-5.031-.339-2.3-2.381-3.923-4.656-3.783-.124,.008-.251,.02-.377,.04-7.947,1.167-16.209,2.432-24.68,3.796-2.419,.387-4.065,2.663-3.674,5.082,.389,2.415,2.612,4.022,5.082,3.674Z"/>
  <path d="M1632.869,480.308c-.385,.024-.772,.1-1.155,.229-7.264,2.466-15.098,4.244-23.285,5.283-2.431,.308-4.15,2.529-3.842,4.958,.306,2.429,2.462,4.146,4.958,3.843,8.777-1.114,17.196-3.027,25.022-5.685,2.318-.787,3.56-3.306,2.773-5.625-.657-1.935-2.523-3.123-4.47-3.003Z"/>
  <path d="M1850.553,400.965c-7.936-3.329-16.067-6.063-24.172-8.132-.458-.117-.922-.158-1.369-.13-1.872,.115-3.535,1.419-4.026,3.333-.604,2.372,.829,4.787,3.203,5.393,7.682,1.959,15.4,4.556,22.932,7.715,2.27,.949,4.859-.115,5.805-2.374,.948-2.259-.115-4.857-2.374-5.805Z"/>
  <path d="M1751.399,392.744c-.373,.023-.754,.095-1.127,.219-8.139,2.704-15.742,6.46-23.243,11.487-2.036,1.362-2.58,4.119-1.216,6.153,1.365,2.035,4.114,2.576,6.152,1.215,6.828-4.573,13.732-7.989,21.103-10.434,2.324-.773,3.582-3.283,2.811-5.607-.647-1.952-2.52-3.153-4.481-3.032Z"/>
  <path d="M1916.321,255.56c-.404,.025-.809,.106-1.208,.248-7.523,2.664-15.382,5.332-23.521,8.008-2.325,.763-3.592,3.271-2.826,5.598,.763,2.325,3.249,3.594,5.597,2.827,8.203-2.698,16.125-5.385,23.709-8.07,2.308-.818,3.516-3.353,2.7-5.661-.676-1.911-2.526-3.068-4.452-2.95Z"/>
  <path d="M1801.224,388.468c-8.259-.767-16.675-.895-25.076-.377l-.443,.029c-2.445,.151-4.304,2.255-4.154,4.7,.151,2.444,2.254,4.304,4.699,4.154l.501-.033c7.889-.486,15.847-.365,23.65,.36,2.437,.211,4.6-1.568,4.828-4.006,.225-2.44-1.568-4.6-4.006-4.828Z"/>
  <path d="M1894.401,426.461c-6.879-5.183-13.979-9.926-21.103-14.095-.788-.463-1.661-.652-2.509-.6-1.426,.088-2.782,.861-3.557,2.187-1.239,2.113-.529,4.83,1.586,6.066,6.827,3.999,13.638,8.55,20.244,13.527,1.954,1.475,4.738,1.086,6.212-.873,1.474-1.956,1.084-4.738-.873-6.212Z"/>
  <path d="M1621.577,110.32c2.569,.115,4.378-2.113,4.305-4.562-.187-6.484,2.489-12.715,8.185-19.037,1.642-1.821,1.494-4.628-.325-6.264-.921-.833-2.094-1.203-3.242-1.133-1.12,.069-2.213,.562-3.021,1.458-7.197,7.99-10.718,16.478-10.464,25.237,.071,2.447,2.113,4.373,4.561,4.3Z"/>
  <path d="M1544.508,394.302c-1.018,.063-2.02,.474-2.809,1.239-7.411,7.168-12.444,14.522-14.958,21.861-.794,2.319,.442,4.839,2.758,5.634,2.318,.794,4.839-.443,5.634-2.758,2.056-6,6.34-12.178,12.734-18.361,1.759-1.703,1.807-4.512,.103-6.272-.938-.971-2.214-1.419-3.462-1.342Z"/>
  <path d="M1585.76,366.751c-.593,.037-1.188,.195-1.75,.484-8.179,4.195-15.584,8.429-22.007,12.578-2.057,1.329-2.647,4.076-1.316,6.133s4.072,2.65,6.133,1.316c6.174-3.989,13.321-8.072,21.24-12.136,2.178-1.117,3.041-3.791,1.92-5.971-.828-1.617-2.515-2.509-4.22-2.404Z"/>
  <path d="M1584.944,486.026c-7.687-1.236-14.932-3.923-21.535-7.982-.807-.497-1.712-.704-2.592-.65-1.392,.086-2.722,.825-3.509,2.104-1.283,2.086-.631,4.816,1.455,6.1,7.597,4.673,15.933,7.764,24.773,9.185,2.408,.377,4.692-1.257,5.083-3.675,.389-2.419-1.257-4.693-3.675-5.082Z"/>
  <path d="M1710.078,419.498c-1.014,.063-2.013,.473-2.803,1.233-4.989,4.808-9.855,9.942-14.562,14.905l-2.907,3.063c-1.689,1.773-1.618,4.58,.156,6.269,1.775,1.69,4.585,1.625,6.269-.156l2.917-3.072c4.853-5.117,9.437-9.953,14.282-14.623,1.763-1.7,1.816-4.508,.114-6.271-.939-.975-2.214-1.425-3.468-1.348Z"/>
  <path d="M1535.796,441.875c-.599-2.018-2.507-3.289-4.521-3.165-.331,.02-.663,.078-.994,.174-2.347,.698-3.686,3.165-2.99,5.512,2.449,8.257,6.594,16.365,11.989,23.455,1.487,1.955,4.274,2.329,6.214,.845,1.95-1.483,2.327-4.265,.844-6.214-4.75-6.245-8.396-13.371-10.541-20.608Z"/>
  <path d="M1678.224,329.582c-.382,.024-.768,.099-1.146,.227-8.049,2.718-15.94,5.461-23.63,8.233-2.305,.832-3.5,3.373-2.671,5.676,.828,2.302,3.374,3.5,5.676,2.67,7.634-2.751,15.47-5.477,23.459-8.174,2.322-.783,3.568-3.301,2.785-5.62-.656-1.94-2.521-3.132-4.473-3.011Z"/>
  <path d="M1675.067,454.806c-.961,.059-1.91,.43-2.684,1.122-6.495,5.818-12.762,10.554-19.159,14.483-2.086,1.283-2.738,4.013-1.457,6.101,1.283,2.082,4.007,2.742,6.102,1.457,6.853-4.211,13.536-9.258,20.433-15.433,1.824-1.633,1.979-4.437,.345-6.263-.942-1.051-2.273-1.548-3.58-1.468Z"/>
  <path d="M1610.351,364.583c7.065-3.101,14.759-6.289,22.875-9.473,2.279-.895,3.403-3.468,2.507-5.75-.72-1.836-2.532-2.922-4.401-2.806-.45,.028-.904,.127-1.349,.299-8.221,3.228-16.026,6.461-23.196,9.61-2.244,.984-3.263,3.601-2.278,5.842,.983,2.244,3.597,3.261,5.842,2.279Z"/>
</svg>