<?xml version="1.0" encoding="UTF-8"?>
<svg id="Réteg_1" data-name="Réteg 1" xmlns="http://www.w3.org/2000/svg" viewBox="0 0 1921.026 895.367">
  <defs>
    <style>
      .cls-1, .cls-2 {
        fill: #fff;
      }

      .cls-2 {
        stroke-miterlimit: 10;
      }

      .cls-2, .cls-3 {
        stroke: #fff;
      }

      .cls-3 {
        fill: none;
        stroke-linecap: round;
        stroke-linejoin: round;
        stroke-width: 3px;
      }
    </style>
  </defs>
  <path class="cls-1" d="M517.364,420.087l-31.734,5.916c-1.184,.221-1.765,1.573-1.111,2.584l13.644,21.086c.661,1.021,2.151,1.033,2.828,.022l18.09-27.002c.834-1.245-.243-2.881-1.717-2.606"/>
  <path class="cls-1" d="M5.023,895.076c-1.511,.649-3.323,.194-4.332-1.191-1.171-1.607-.817-3.863,.791-5.036,5.304-3.861,10.484-8.167,15.396-12.795,1.447-1.365,3.73-1.296,5.095,.152,1.365,1.447,1.296,3.728-.152,5.094-5.13,4.836-10.547,9.335-16.095,13.378-.224,.161-.458,.293-.703,.398m29.831-27.976c-1.216,.522-2.675,.353-3.755-.558-1.519-1.286-1.707-3.56-.421-5.078,4.178-4.94,8.301-10.324,12.249-16.008,1.137-1.634,3.383-2.04,5.017-.903,1.634,1.136,2.038,3.383,.903,5.016-4.081,5.871-8.342,11.437-12.669,16.548-.371,.443-.828,.77-1.324,.983m23.478-33.577c-1.016,.437-2.221,.403-3.248-.201-1.717-1.005-2.292-3.213-1.287-4.932,3.288-5.604,6.471-11.438,9.731-17.829,.908-1.773,3.078-2.476,4.848-1.571,1.774,.905,2.478,3.073,1.574,4.848-3.327,6.516-6.576,12.47-9.935,18.2-.403,.687-1.002,1.193-1.683,1.485m273.353-135.889c-2.37,1.019-4.81,1.956-7.259,2.79-1.881,.64-3.931-.368-4.572-2.252-.64-1.882,.403-3.92,2.252-4.573,6.233-2.119,12.286-4.934,17.881-8.296,1.729-1.023,3.922-.475,4.947,1.233,1.023,1.705,.47,3.92-1.234,4.947-3.836,2.303-7.876,4.373-12.015,6.151m-26.995,7.019c-.339,.146-.707,.243-1.094,.279-4.893,.444-9.674,.43-14.219-.037-2.374-.248-4.794-.603-7.192-1.058-1.957-.374-3.239-2.259-2.869-4.214,.375-1.954,2.254-3.232,4.215-2.868,2.198,.418,4.415,.745,6.588,.972,4.08,.419,8.394,.43,12.82,.025,1.984-.178,3.738,1.283,3.918,3.262,.146,1.596-.773,3.04-2.167,3.639m54.812-25.415c-1.326,.57-2.925,.307-3.997-.788-1.392-1.42-1.37-3.705,.051-5.096,4.889-4.791,8.844-9.964,11.76-15.373,.937-1.759,3.13-2.406,4.88-1.462,1.754,.944,2.406,3.13,1.462,4.881-3.258,6.049-7.65,11.801-13.056,17.101-.329,.321-.703,.566-1.1,.737m-282.402,117.803c-.907,.39-1.966,.408-2.933-.038-1.808-.832-2.597-2.971-1.765-4.78,2.879-6.247,5.636-12.492,8.322-18.676,.798-1.821,2.919-2.66,4.742-1.869,1.827,.793,2.662,2.916,1.871,4.743-2.708,6.231-5.487,12.523-8.389,18.819-.388,.841-1.059,1.462-1.848,1.801m187.586-99.367c-.85,.366-1.841,.405-2.767,.033-6.538-2.63-12.941-5.746-18.884-8.72-1.777-.891-2.501-3.055-1.607-4.836,.892-1.782,3.056-2.497,4.836-1.608,5.802,2.904,12.046,5.944,18.344,8.477,1.847,.742,2.741,2.84,1.999,4.688-.371,.921-1.077,1.604-1.921,1.966m113.281-54.118c-.543,.234-1.15,.337-1.778,.274-1.978-.2-3.426-1.964-3.227-3.945,.584-5.859,.75-12.22,.521-20.027-.058-1.99,1.513-3.646,3.498-3.706,1.99-.058,3.648,1.508,3.706,3.498,.237,8.119,.061,14.778-.553,20.952-.137,1.35-1,2.453-2.167,2.954m-284.403,115.886c-.876,.377-1.901,.407-2.849-.002-1.827-.785-2.671-2.904-1.883-4.733,2.776-6.448,5.525-12.758,8.302-18.854,.83-1.809,2.968-2.609,4.774-1.784,1.809,.824,2.61,2.962,1.785,4.772-2.759,6.05-5.486,12.313-8.243,18.715-.379,.882-1.068,1.535-1.886,1.886m131.017-79.535l-2.108-.968c-6.175-2.835-11.506-5.283-16.303-7.212-1.845-.747-2.74-2.845-1.997-4.692,.743-1.844,2.838-2.737,4.692-1.997,4.952,1.997,10.355,4.478,16.616,7.353l2.127,.975-1.363,3.344-1.664,3.197Zm-113.799,42.279c-.96,.412-2.093,.405-3.091-.116-1.766-.919-2.449-3.096-1.53-4.862,3.573-6.848,7.007-12.752,10.499-18.041,1.099-1.659,3.331-2.117,4.994-1.019,1.658,1.095,2.116,3.33,1.019,4.993-3.352,5.079-6.662,10.773-10.122,17.403-.399,.765-1.035,1.326-1.769,1.642m266.83-119.612c-.397,.171-.832,.274-1.289,.29-1.99,.074-3.661-1.479-3.734-3.467-.212-5.734-.369-13.301,.328-20.951,.179-1.981,1.934-3.44,3.915-3.261,1.981,.18,3.442,1.931,3.261,3.916-.657,7.242-.507,14.509-.303,20.029,.056,1.53-.849,2.873-2.178,3.444m-188.394,63.897c-.521,.224-1.103,.329-1.706,.281-5.74-.46-11.799,.21-19.068,2.103-1.924,.506-3.892-.652-4.394-2.578-.502-1.925,.637-3.893,2.578-4.394,8.069-2.107,14.889-2.843,21.457-2.318,1.984,.159,3.466,1.897,3.307,3.88-.111,1.381-.984,2.515-2.174,3.026m-55.461,21.925c-1.293,.555-2.849,.321-3.928-.717-1.43-1.385-1.468-3.668-.088-5.099,5.373-5.557,10.899-9.874,16.896-13.202,1.771-.948,3.938-.336,4.9,1.403,.967,1.742,.339,3.934-1.403,4.901-5.366,2.976-10.341,6.872-15.206,11.908-.345,.355-.744,.622-1.171,.806m248.367-126.336c-.796,.342-1.717,.401-2.599,.094-1.884-.649-2.88-2.7-2.229-4.58,2.032-5.88,4.958-12.343,8.697-19.213,.957-1.748,3.143-2.392,4.889-1.442,1.75,.953,2.394,3.139,1.442,4.889-3.549,6.52-6.316,12.615-8.218,18.117-.345,.999-1.084,1.749-1.982,2.135m19.11-36.197c-1.08,.465-2.364,.392-3.413-.302-1.659-1.099-2.118-3.334-1.019-4.994,4.118-6.228,8.277-12.068,11.8-16.964,1.167-1.616,3.416-1.981,5.031-.817,1.614,1.164,1.981,3.415,.817,5.03-3.483,4.837-7.588,10.608-11.636,16.725-.401,.609-.956,1.054-1.58,1.322m24.723-32.698c-1.267,.545-2.79,.334-3.868-.659-1.465-1.35-1.556-3.629-.208-5.093,4.306-4.669,9.253-9.61,14.705-14.688,1.443-1.356,3.733-1.279,5.092,.182,1.357,1.455,1.276,3.735-.182,5.093-5.317,4.955-10.134,9.763-14.314,14.298-.355,.386-.775,.674-1.225,.867m29.894-28.056c-1.423,.611-3.131,.254-4.18-.992-1.282-1.522-1.086-3.793,.438-5.076,4.917-4.139,10.155-8.397,16.012-13.013,1.569-1.234,3.828-.967,5.061,.598,1.23,1.563,.963,3.83-.599,5.061-5.796,4.571-10.974,8.78-15.836,12.868-.275,.233-.579,.418-.896,.554"/>
  <path class="cls-1" d="M1778.158,161.162c8.23,.695,16.55,1.349,24.894,1.984,2.422,.215,4.571-1.639,4.761-4.081,.186-2.446-1.643-4.578-4.086-4.761-8.321-.637-16.617-1.293-24.826-1.98-.221-.021-.438-.021-.652-.008-2.159,.133-3.953,1.833-4.139,4.056-.205,2.439,1.606,4.584,4.047,4.789h.001Z"/>
  <path class="cls-1" d="M1744.573,38.686c7.601-1.9,15.719-3.807,24.13-5.657,2.391-.529,3.902-2.897,3.375-5.285-.476-2.163-2.455-3.607-4.6-3.475-.227,.014-.457,.045-.685,.094-8.492,1.873-16.692,3.797-24.373,5.716-2.376,.593-3.819,3.005-3.226,5.38,.595,2.377,2.985,3.835,5.38,3.227h0Z"/>
  <path class="cls-1" d="M1728.359,156.17c8.076,.986,16.401,1.892,24.898,2.73,2.451,.262,4.607-1.542,4.849-3.978,.24-2.436-1.541-4.609-3.979-4.849-8.428-.835-16.683-1.727-24.692-2.709-.276-.035-.548-.039-.815-.023-2.092,.129-3.862,1.73-4.126,3.885-.297,2.432,1.434,4.647,3.865,4.943h0Z"/>
  <path class="cls-1" d="M1745.557,312.726c.709,2.347,3.192,3.677,5.527,2.964,7.955-2.402,15.939-4.786,23.911-7.156,2.348-.696,3.686-3.166,2.988-5.513-.599-2.018-2.505-3.289-4.519-3.165-.33,.02-.663,.078-.994,.177-7.985,2.371-15.981,4.76-23.949,7.167-2.345,.707-3.672,3.181-2.964,5.527h0Z"/>
  <path class="cls-1" d="M1652.523,72.262c6.155-3.699,13.453-7.378,21.688-10.94,2.247-.971,3.281-3.583,2.309-5.831-.761-1.762-2.531-2.778-4.342-2.666-.499,.031-1.002,.145-1.488,.357-8.594,3.715-16.242,7.575-22.732,11.472-2.1,1.262-2.781,3.986-1.518,6.086,1.26,2.101,3.988,2.779,6.084,1.521h0Z"/>
  <path class="cls-1" d="M1675.365,142.713c-.536,2.389,.969,4.76,3.357,5.299,7.476,1.669,15.811,3.243,24.774,4.674,2.414,.385,4.692-1.261,5.079-3.68,.385-2.418-1.263-4.691-3.68-5.075-8.784-1.403-16.937-2.944-24.235-4.577-.418-.092-.834-.123-1.242-.098-1.919,.118-3.612,1.486-4.053,3.457h0Z"/>
  <path class="cls-1" d="M1725.689,314.298c-.348,.021-.698,.084-1.043,.191-8.017,2.484-15.971,4.985-23.824,7.507-2.331,.749-3.616,3.247-2.867,5.579,.752,2.331,3.258,3.628,5.58,2.867,7.822-2.515,15.747-5.006,23.735-7.48,2.339-.725,3.649-3.209,2.925-5.549-.618-1.995-2.513-3.238-4.505-3.116h-.001Z"/>
  <path class="cls-1" d="M1697.138,52.519c7.231-2.499,15.15-4.992,23.539-7.418,2.353-.678,3.707-3.136,3.029-5.489-.588-2.034-2.503-3.322-4.53-3.197-.321,.02-.642,.075-.965,.169-8.53,2.466-16.594,5.007-23.969,7.548-2.313,.798-3.544,3.325-2.744,5.641,.796,2.311,3.309,3.528,5.64,2.747h0Z"/>
  <path class="cls-1" d="M1867.901,271.402c-7.767,2.43-15.714,4.868-23.799,7.314-2.343,.712-3.668,3.186-2.959,5.531,.709,2.346,3.183,3.653,5.531,2.959,8.11-2.457,16.084-4.901,23.875-7.34,2.338-.73,3.64-3.219,2.908-5.556-.621-1.988-2.511-3.226-4.5-3.103-.352,.022-.707,.086-1.056,.195h0Z"/>
  <path class="cls-1" d="M1877.63,168.902c8.471,.741,16.747,1.524,24.753,2.367,2.428,.275,4.62-1.513,4.875-3.946,.255-2.437-1.511-4.619-3.948-4.876-8.053-.849-16.384-1.637-24.907-2.383-.224-.017-.446-.021-.667-.007-2.153,.133-3.944,1.823-4.138,4.039-.213,2.439,1.593,4.592,4.031,4.806h0Z"/>
  <path class="cls-1" d="M1891.064,12.015c8.956-1.202,17.246-2.26,24.668-3.178,2.43-.302,4.158-2.513,3.858-4.946-.29-2.339-2.348-4.026-4.67-3.883-.091,.006-.183,.016-.274,.026-7.453,.919-15.777,1.98-24.767,3.193-2.427,.328-4.128,2.559-3.803,4.986s2.58,4.162,4.988,3.801h0Z"/>
  <path class="cls-1" d="M1629.952,123.369c-1.456,1.968-1.04,4.747,.932,6.204,5.894,4.354,13.531,8.148,23.347,11.6,2.308,.813,4.839-.403,5.656-2.709,.812-2.311-.403-4.844-2.713-5.657-8.844-3.113-15.916-6.599-21.019-10.372-.873-.64-1.903-.92-2.906-.858-1.265,.078-2.485,.691-3.296,1.791h0Z"/>
  <path class="cls-1" d="M1792.994,27.972c8.173-1.614,16.333-3.133,24.398-4.567,2.412-.426,4.019-2.73,3.592-5.143-.398-2.241-2.416-3.787-4.633-3.65-.169,.01-.339,.03-.508,.061-8.121,1.438-16.336,2.969-24.57,4.596-2.403,.474-3.965,2.809-3.491,5.211,.473,2.404,2.782,3.958,5.212,3.492Z"/>
  <path class="cls-1" d="M1827.96,165.008c8.344,.615,16.65,1.231,24.856,1.866,2.447,.223,4.575-1.632,4.762-4.078,.19-2.441-1.636-4.577-4.079-4.765-8.215-.635-16.53-1.25-24.885-1.872-.205-.012-.406-.014-.608-.002-2.178,.134-3.977,1.86-4.143,4.101-.181,2.441,1.653,4.567,4.096,4.75h.001Z"/>
  <path class="cls-1" d="M1796.341,292.958c-2.349,.694-3.689,3.161-2.995,5.512,.694,2.348,3.151,3.681,5.512,2.995,8.031-2.374,16.015-4.738,23.912-7.089,2.349-.699,3.687-3.17,2.986-5.515-.599-2.018-2.507-3.287-4.519-3.163-.33,.02-.666,.078-.995,.177-7.894,2.35-15.874,4.711-23.9,7.084h0Z"/>
  <path class="cls-1" d="M1841.884,19.256c8.433-1.353,16.652-2.615,24.564-3.779,2.424-.354,4.098-2.609,3.742-5.031-.339-2.3-2.381-3.923-4.656-3.783-.124,.008-.251,.02-.377,.04-7.947,1.167-16.209,2.432-24.68,3.796-2.419,.387-4.065,2.663-3.674,5.082,.389,2.415,2.612,4.022,5.082,3.674h0Z"/>
  <path class="cls-1" d="M1632.869,480.308c-.385,.024-.772,.1-1.155,.229-7.264,2.466-15.098,4.244-23.285,5.283-2.431,.308-4.15,2.529-3.842,4.958,.306,2.429,2.462,4.146,4.958,3.843,8.777-1.114,17.196-3.027,25.022-5.685,2.318-.787,3.56-3.306,2.773-5.625-.657-1.935-2.523-3.123-4.47-3.003h0Z"/>
  <path class="cls-1" d="M1850.553,400.965c-7.936-3.329-16.067-6.063-24.172-8.132-.458-.117-.922-.158-1.369-.13-1.872,.115-3.535,1.419-4.026,3.333-.604,2.372,.829,4.787,3.203,5.393,7.682,1.959,15.4,4.556,22.932,7.715,2.27,.949,4.859-.115,5.805-2.374,.948-2.259-.115-4.857-2.374-5.805h0Z"/>
  <path class="cls-1" d="M1751.399,392.744c-.373,.023-.754,.095-1.127,.219-8.139,2.704-15.742,6.46-23.243,11.487-2.036,1.362-2.58,4.119-1.216,6.153,1.365,2.035,4.114,2.576,6.152,1.215,6.828-4.573,13.732-7.989,21.103-10.434,2.324-.773,3.582-3.283,2.811-5.607-.647-1.952-2.52-3.153-4.481-3.032h0Z"/>
  <path class="cls-1" d="M1916.321,255.56c-.404,.025-.809,.106-1.208,.248-7.523,2.664-15.382,5.332-23.521,8.008-2.325,.763-3.592,3.271-2.826,5.598,.763,2.325,3.249,3.594,5.597,2.827,8.203-2.698,16.125-5.385,23.709-8.07,2.308-.818,3.516-3.353,2.7-5.661-.676-1.911-2.526-3.068-4.452-2.95h.001Z"/>
  <path class="cls-1" d="M1801.224,388.468c-8.259-.767-16.675-.895-25.076-.377l-.443,.029c-2.445,.151-4.304,2.255-4.154,4.7,.151,2.444,2.254,4.304,4.699,4.154l.501-.033c7.889-.486,15.847-.365,23.65,.36,2.437,.211,4.6-1.568,4.828-4.006,.225-2.44-1.568-4.6-4.006-4.828h.001Z"/>
  <path class="cls-1" d="M1894.401,426.461c-6.879-5.183-13.979-9.926-21.103-14.095-.788-.463-1.661-.652-2.509-.6-1.426,.088-2.782,.861-3.557,2.187-1.239,2.113-.529,4.83,1.586,6.066,6.827,3.999,13.638,8.55,20.244,13.527,1.954,1.475,4.738,1.086,6.212-.873,1.474-1.956,1.084-4.738-.873-6.212h0Z"/>
  <path class="cls-1" d="M1621.577,110.32c2.569,.115,4.378-2.113,4.305-4.562-.187-6.484,2.489-12.715,8.185-19.037,1.642-1.821,1.494-4.628-.325-6.264-.921-.833-2.094-1.203-3.242-1.133-1.12,.069-2.213,.562-3.021,1.458-7.197,7.99-10.718,16.478-10.464,25.237,.071,2.447,2.113,4.373,4.561,4.3h0Z"/>
  <path class="cls-1" d="M1544.508,394.302c-1.018,.063-2.02,.474-2.809,1.239-7.411,7.168-12.444,14.522-14.958,21.861-.794,2.319,.442,4.839,2.758,5.634,2.318,.794,4.839-.443,5.634-2.758,2.056-6,6.34-12.178,12.734-18.361,1.759-1.703,1.807-4.512,.103-6.272-.938-.971-2.214-1.419-3.462-1.342h0Z"/>
  <path class="cls-1" d="M1585.76,366.751c-.593,.037-1.188,.195-1.75,.484-8.179,4.195-15.584,8.429-22.007,12.578-2.057,1.329-2.647,4.076-1.316,6.133s4.072,2.65,6.133,1.316c6.174-3.989,13.321-8.072,21.24-12.136,2.178-1.117,3.041-3.791,1.92-5.971-.828-1.617-2.515-2.509-4.22-2.404h0Z"/>
  <path class="cls-1" d="M1584.944,486.026c-7.687-1.236-14.932-3.923-21.535-7.982-.807-.497-1.712-.704-2.592-.65-1.392,.086-2.722,.825-3.509,2.104-1.283,2.086-.631,4.816,1.455,6.1,7.597,4.673,15.933,7.764,24.773,9.185,2.408,.377,4.692-1.257,5.083-3.675,.389-2.419-1.257-4.693-3.675-5.082h0Z"/>
  <path class="cls-1" d="M1710.078,419.498c-1.014,.063-2.013,.473-2.803,1.233-4.989,4.808-9.855,9.942-14.562,14.905l-2.907,3.063c-1.689,1.773-1.618,4.58,.156,6.269,1.775,1.69,4.585,1.625,6.269-.156l2.917-3.072c4.853-5.117,9.437-9.953,14.282-14.623,1.763-1.7,1.816-4.508,.114-6.271-.939-.975-2.214-1.425-3.468-1.348h.002Z"/>
  <path class="cls-1" d="M1535.796,441.875c-.599-2.018-2.507-3.289-4.521-3.165-.331,.02-.663,.078-.994,.174-2.347,.698-3.686,3.165-2.99,5.512,2.449,8.257,6.594,16.365,11.989,23.455,1.487,1.955,4.274,2.329,6.214,.845,1.95-1.483,2.327-4.265,.844-6.214-4.75-6.245-8.396-13.371-10.541-20.608h0Z"/>
  <path class="cls-1" d="M1678.224,329.582c-.382,.024-.768,.099-1.146,.227-8.049,2.718-15.94,5.461-23.63,8.233-2.305,.832-3.5,3.373-2.671,5.676,.828,2.302,3.374,3.5,5.676,2.67,7.634-2.751,15.47-5.477,23.459-8.174,2.322-.783,3.568-3.301,2.785-5.62-.656-1.94-2.521-3.132-4.473-3.011h0Z"/>
  <path class="cls-1" d="M1675.067,454.806c-.961,.059-1.91,.43-2.684,1.122-6.495,5.818-12.762,10.554-19.159,14.483-2.086,1.283-2.738,4.013-1.457,6.101,1.283,2.082,4.007,2.742,6.102,1.457,6.853-4.211,13.536-9.258,20.433-15.433,1.824-1.633,1.979-4.437,.345-6.263-.942-1.051-2.273-1.548-3.58-1.468h0Z"/>
  <path class="cls-1" d="M1610.351,364.583c7.065-3.101,14.759-6.289,22.875-9.473,2.279-.895,3.403-3.468,2.507-5.75-.72-1.836-2.532-2.922-4.401-2.806-.45,.028-.904,.127-1.349,.299-8.221,3.228-16.026,6.461-23.196,9.61-2.244,.984-3.263,3.601-2.278,5.842,.983,2.244,3.597,3.261,5.842,2.279h0Z"/>
  <g>
    <path class="cls-2" d="M160.448,77.804c.694-2.669,.736-5.454,.13-8.129l2.128-2.034c.797,.834,2.119,.864,2.954,.067l6.042-5.775c.833-.797,.864-2.119,.067-2.954l-8.662-9.063c-.797-.834-2.12-.863-2.954-.067l-6.042,5.775c-.834,.797-.864,2.119-.067,2.954l-2.128,2.034c-2.646-.726-5.429-.81-8.127-.238-3.128,.663-6.004,2.183-8.316,4.393l-25.166,24.053c-2.498,2.388-2.588,6.364-.2,8.862,1.108,1.16,2.559,1.799,4.045,1.915,.048,1.489,.621,2.967,1.729,4.127s2.559,1.799,4.045,1.915c.048,1.489,.622,2.968,1.73,4.127,2.388,2.498,6.364,2.588,8.862,.201l25.166-24.053c2.312-2.21,3.96-5.014,4.765-8.109"/>
    <rect class="cls-2" x="128.632" y="72.97" width="16.994" height="20.894" transform="translate(-19.64 117.859) rotate(-43.704)"/>
    <rect class="cls-2" x="160.817" y="54.6" width="4.179" height="8.358" transform="translate(4.526 128.844) rotate(-43.704)"/>
    <path class="cls-2" d="M151.762,64.942c.745,.267,1.577,.091,2.149-.456l3.021-2.887,2.887,3.021-3.021,2.887c-.573,.547-.786,1.37-.553,2.126,1.366,4.43,.306,9.15-2.761,12.55l-14.384-15.05c3.535-2.91,8.299-3.755,12.662-2.19Z"/>
    <path class="cls-2" d="M124.677,106.878c-.796-.833-.766-2.158,.067-2.954s.864-2.121,.067-2.955-2.12-.864-2.954-.066-2.158,.766-2.954-.068-.766-2.158,.067-2.954,.865-2.12,.068-2.954-2.121-.864-2.955-.067-2.158,.766-2.954-.067-.766-2.158,.067-2.954l7.552-7.218,14.436,15.104-7.552,7.218c-.833,.796-2.158,.766-2.954-.067"/>
  </g>
  <g>
    <path class="cls-1" d="M474.335,109.349c-2.498-6.54-6.965-10.498-10.389-9.206-1.583,.597-2.936,2.177-4.649,4.178-2.095,2.448-4.703,5.494-8.028,6.748-3.362,1.268-6.827,.631-8.536-.322,1.869-3.594,2.151-7.839,.716-11.643-2.785-7.385-11.061-11.128-18.446-8.342-6.229,2.349-9.866,8.604-9.181,14.937l-5.446,2.054c-.925,.349-1.392,1.381-1.043,2.306,1.741,4.616,6.913,6.955,11.529,5.214l.123-.046c.477,.387,.98,.747,1.508,1.074-5.25,9.547-1.905,23.224,9.955,28.529,6.383,2.855,14.326,2.984,21.294,.355l.222-.085c5.35-2.069,9.819-4.684,13.281-7.773,8.497-7.581,10.847-18.135,7.088-27.978m-60.734,1.014l3.061-1.155c.409,1.085,.942,2.101,1.58,3.035-1.764,.176-3.507-.538-4.641-1.88m39.074,31.4l-.196,.075c-6.103,2.302-13.03,2.203-18.569-.275-4.326-1.935-7.441-5.153-9.008-9.306l-.02-.053c-1.201-3.176-2.589-9.423,1.614-15.586,.299-.44,.388-.99,.241-1.501-.147-.511-.513-.931-.999-1.145-8.802-3.873-8.407-16.49,.529-19.861,5.539-2.089,11.745,.718,13.834,6.257,1.216,3.224,.782,6.877-1.16,9.77-.428,.638-.402,1.479,.067,2.089,2.058,2.673,8.117,4.231,13.523,2.192,4.184-1.578,7.123-5.012,9.484-7.77,1.156-1.352,2.468-2.884,3.192-3.158,.687-.259,3.743,1.791,5.784,7.135,3.869,10.131,1.09,23.632-18.317,31.137"/>
    <path class="cls-1" d="M423.771,102.702c.924-.349,1.957,.118,2.305,1.043s-.118,1.958-1.042,2.306-1.957-.119-2.306-1.044,.118-1.957,1.043-2.305"/>
    <path class="cls-1" d="M458.954,121.895c-.024-.481-.241-.932-.602-1.251-2.951-2.607-8.045-3.09-12.979-1.229-3.01,1.135-5.562,3.007-7.186,5.272-1.78,2.482-2.269,5.152-1.376,7.518s3.023,4.049,5.999,4.738c2.715,.627,5.867,.348,8.877-.787,4.934-1.861,8.44-5.587,8.935-9.493,.06-.478-.075-.96-.375-1.337-.3-.378-.738-.618-1.217-.667l-1.734-.18,1.183-1.28c.327-.353,.497-.824,.474-1.304m-8.53,10.913c-4.537,1.711-9.238,.857-10.265-1.866s1.939-6.468,6.476-8.18c2.756-1.04,5.659-1.146,7.724-.378l-2.12,2.291c-.461,.498-.6,1.212-.361,1.846s.815,1.079,1.49,1.149l3.105,.321c-1.044,1.939-3.293,3.776-6.05,4.816"/>
  </g>
  <path class="cls-1" d="M642.395,579.08c.56-.56,.56-1.469,0-2.03l-8.122-8.122c-.56-.56-1.47-.56-2.03,0l-5.076,5.076c-.569-.569-1.498-.55-2.039,.009-9.471,9.634-20.097,18.86-30.728,26.681-.698,.515-.791,1.543-.165,2.172l14.213,14.213c.623,.623,1.652,.539,2.171-.165,8.446-11.48,16.862-20.89,26.7-30.728,.57-.57,.545-1.484,0-2.03l5.076-5.076Zm-33.093,34.792l-11.86-11.859c.771-.576,1.542-1.159,2.313-1.749l11.295,11.296c-.59,.77-1.173,1.541-1.748,2.312m3.521-4.6l-10.78-10.781c8.357-6.554,16.579-13.859,24.114-21.436l8.111,8.111c-7.601,7.557-14.908,15.776-21.445,24.106m20.435-37.298l2.03,2.03-1.015,1.016c-.561,.56-.561,1.469,0,2.03,.561,.561,1.47,.561,2.03,0l1.016-1.015,2.03,2.03-4.061,4.061-6.091-6.091,4.061-4.061Z"/>
  <path class="cls-1" d="M615.999,589.231c-.813,.814-1.261,1.895-1.261,3.046s.448,2.232,1.261,3.045c.84,.84,1.943,1.26,3.046,1.26s2.206-.42,3.045-1.26c.814-.813,1.262-1.895,1.262-3.045s-.448-2.232-1.262-3.046c-1.679-1.679-4.411-1.679-6.091,0m4.061,4.061c-.271,.271-.632,.42-1.015,.42s-.744-.149-1.015-.42-.421-.632-.421-1.015,.15-.744,.421-1.015c.28-.28,.647-.42,1.015-.42s.735,.14,1.015,.42c.271,.271,.421,.631,.421,1.015,0,.383-.15,.744-.421,1.015"/>
  <g>
    <path class="cls-1" d="M349.738,845.155c9.857-1.782,15.853-4.954,18.872-9.982,2.649-4.416,3.08-10.178,1.44-19.27-2.692-14.921-10.492-14.509-14.551-37.01-.19-1.053-1.198-1.752-2.251-1.562l-7.626,1.376c-1.053,.19-1.753,1.197-1.563,2.25l2.805,15.549c.565,3.13-1.522,6.138-4.654,6.703-3.177,.573-6.227-1.546-6.801-4.723l-2.79-15.465c-.19-1.053-1.197-1.752-2.25-1.562l-7.627,1.376c-1.053,.19-1.752,1.197-1.562,2.25,4.059,22.497-3.383,24.896-.701,39.762,1.641,9.093,4.058,14.343,8.084,17.556,4.585,3.657,11.308,4.533,21.157,2.756l.019-.003Zm-25.446-20.997c-2.396-13.281,4.474-16.422,1.027-37.852l3.831-.691,2.446,13.558c.953,5.28,6.023,8.799,11.302,7.847,5.234-.944,8.724-5.97,7.779-11.203l-2.461-13.642,3.831-.691c4.257,21.274,11.784,21.775,14.19,35.106,2.754,15.265-.147,21.671-17.187,24.751l-.019,.003c-16.896,3.048-21.962-1.793-24.74-17.187"/>
    <path class="cls-1" d="M361.886,831.283c.57-.906,.298-2.101-.608-2.672-.905-.57-2.101-.298-2.671,.608-1.272,2.021-4.439,3.324-10.934,4.496s-9.925,1.061-11.821-.387c-.851-.65-2.066-.488-2.716,.363-.649,.85-.488,2.066,.363,2.716,3.343,2.554,8.358,2.295,14.861,1.122,6.497-1.173,11.284-2.684,13.525-6.246"/>
  </g>
  <path class="cls-1" d="M171.99,515.738c-1.798-2.654-5.692-3.093-6.381-4.98-.843-2.311,.347-4.569-1.202-7.46-1.161-2.167-3.219-3.164-4.36-3.569l-1.732-4.745c-.273-.749-1.102-1.134-1.85-.861l-1.356,.495-1.056-2.892,1.356-.495c.749-.273,1.134-1.102,.86-1.851s-1.102-1.134-1.85-.861l-8.135,2.969c-.749,.273-1.134,1.102-.861,1.85l1.551,4.249-1.356,.495c-.749,.273-1.135,1.102-.862,1.851l1.732,4.745c-.612,1.045-1.543,3.133-1.036,5.539,.68,3.219,3.044,4.172,3.886,6.48,.69,1.89-2.007,4.726-1.672,7.919,.308,2.937,6.742,12.246,8.411,14.607,.376,.531,1.062,.746,1.674,.523l16.269-5.938c.612-.224,.998-.83,.943-1.478-.246-2.906-1.32-14.148-2.975-16.591m-19.619-20.201l-2.712,.99-1.03-2.822,2.712-.99,1.03,2.822Zm-4.408,4.761l8.135-2.969,.99,2.712-8.135,2.969-.99-2.712Zm24.024,31.178l-14.182,5.176c-1.14-1.65-7.058-10.338-7.268-12.338-.24-2.282,2.718-5.309,1.513-8.608-1.07-2.932-3.298-3.833-3.774-6.087-.327-1.546,.382-2.963,.748-3.564l9.968-3.638c.672,.225,2.123,.854,2.868,2.244,1.099,2.051-.046,4.123,1.036,7.087,1.204,3.298,5.415,3.71,6.702,5.609,1.128,1.665,2.197,12.124,2.388,14.119"/>
  <path class="cls-1" d="M165.433,518.487l-10.979,4.007c-.378,.138-.68,.426-.836,.796-.156,.37-.151,.789,.015,1.155,.658,1.453,2.442,4.435,4.655,7.779,.368,.557,1.071,.788,1.698,.559l7.841-2.862c.627-.229,1.015-.858,.938-1.521-.461-3.984-1.017-7.414-1.45-8.949-.109-.387-.374-.71-.732-.893-.357-.183-.775-.208-1.152-.07m.331,9.115l-5.693,2.078c-1.268-1.949-2.362-3.737-3.088-5.036l7.899-2.883c.282,1.462,.596,3.534,.881,5.842"/>
  <path class="cls-1" d="M948.813,860.522l9.321-4.237c.119-.054,.248-.14,.351-.244,.964-.963,27.086-27.086,28.483-28.483,1.402-1.402,1.402-3.682,0-5.084l-1.694-1.694c-1.402-1.402-3.683-1.402-5.085,0-1.09,1.09-27.845,27.845-28.483,28.483-.104,.104-.19,.235-.243,.351l-4.237,9.321c-.207,.455-.11,.99,.244,1.343,.351,.351,.886,.451,1.343,.244m28.835-33.811l3.389,3.389-1.695,1.695-3.389-3.389,1.695-1.695Zm-3.39,3.389l3.39,3.39-20.01,20.009-3.39-3.389,20.01-20.01Zm7.626-7.626c.467-.467,1.227-.467,1.695,0l1.694,1.695c.468,.467,.468,1.227,0,1.694l-2.542,2.543-3.389-3.39,2.542-2.542Zm-28.955,29.706l2.639,2.639-4.838,2.198,2.199-4.837Z"/>
  <path class="cls-1" d="M1075.825,220.339c.291,.624,1.03,.888,1.648,.6,.503-.235,10.659-4.97,11.17-5.209l2.977,2.976-.877,.877c-.484,.484-.484,1.269,0,1.753,.484,.485,1.269,.485,1.754,0l.876-.876,2.976,2.976c-.244,.524-4.984,10.691-5.208,11.171-.29,.62-.021,1.358,.6,1.648,.617,.288,1.356,.023,1.647-.6l1.625-3.484c2.817,.675,5.801-.707,7.061-3.409l8.853-18.986c.301-.209,.588-.445,.856-.713,1.431-1.431,2.015-3.393,1.751-5.257l3.404-3.404c1.45-1.45,1.45-3.81,0-5.26-1.45-1.45-3.81-1.45-5.26,0l-3.404,3.404c-1.864-.264-3.827,.32-5.257,1.751-.268,.267-.505,.555-.713,.855l-18.986,8.854c-2.741,1.278-4.082,4.28-3.41,7.062l-3.483,1.624c-.621,.289-.889,1.027-.6,1.647m19.302-1.633l.876-.876c.484-.484,.484-1.269,0-1.753-.484-.484-1.269-.484-1.753,0l-.877,.876-2.338-2.338,11.958-5.576,.023,.024,.025,.023-5.576,11.959-2.338-2.339Zm4.7,9.008c-.697,1.494-2.236,2.278-3.73,2.132l9.044-19.395c.793,.309,1.655,.458,2.54,.418l-7.854,16.845Zm13.604-30.819c.483-.483,1.27-.483,1.753,0,.484,.484,.484,1.27,0,1.754l-2.613,2.613c-.225-.341-.488-.665-.788-.965s-.624-.563-.965-.789l2.613-2.613Zm-3.401,5.155c1.45,1.45,1.45,3.81,0,5.26-1.451,1.45-3.81,1.45-5.26,0-1.451-1.45-1.451-3.81,0-5.26,1.45-1.45,3.809-1.45,5.26,0m-25.664,10.203l16.844-7.855c-.038,.861,.102,1.728,.419,2.541l-19.393,9.043c-.147-1.524,.665-3.046,2.13-3.729"/>
  <g>
    <rect class="cls-3" x="1366.395" y="51.169" width="6.954" height="12.7" rx="1.613" ry="1.613" transform="translate(1.084 136.741) rotate(-5.717)"/>
    <rect class="cls-3" x="1363.399" y="76.379" width="9.799" height="9.799" transform="translate(-1.291 136.703) rotate(-5.717)"/>
    <rect class="cls-3" x="1380.461" y="74.671" width="9.799" height="9.799" transform="translate(-1.036 138.394) rotate(-5.717)"/>
    <rect class="cls-3" x="1397.524" y="72.963" width="9.799" height="9.799" transform="translate(-.781 140.085) rotate(-5.717)"/>
    <rect class="cls-3" x="1364.985" y="92.223" width="9.799" height="9.799" transform="translate(-2.861 136.94) rotate(-5.717)"/>
    <rect class="cls-3" x="1382.048" y="90.515" width="9.799" height="9.799" transform="translate(-2.606 138.631) rotate(-5.717)"/>
    <rect class="cls-3" x="1399.11" y="88.807" width="9.799" height="9.799" transform="translate(-2.351 140.322) rotate(-5.717)"/>
    <path class="cls-3" d="M1411.74,58.506l.737,7.359-56.411,5.647-.737-7.359c-.284-2.833,1.869-5.366,4.815-5.661l6.268-.627,.472,4.713c.089,.891,.875,1.533,1.765,1.444l3.71-.371c.891-.089,1.533-.875,1.444-1.766l-.472-4.713,6.231-.624,.472,4.713c.089,.891,.875,1.533,1.765,1.444l3.71-.371c.891-.089,1.533-.875,1.444-1.766l-.472-4.713,6.23-.624,.472,4.713c.089,.891,.875,1.533,1.766,1.444l3.71-.371c.89-.089,1.533-.875,1.444-1.766l-.472-4.713,6.268-.627c2.945-.295,5.557,1.761,5.841,4.594Z"/>
    <path class="cls-3" d="M1412.477,65.865l-56.411,5.647,3.464,34.6c.166,1.661,1.647,2.872,3.308,2.706l50.397-5.045c1.661-.166,2.872-1.647,2.706-3.308l-3.464-34.6Z"/>
    <path class="cls-3" d="M1394.308,48.537h3.728c.89,0,1.613,.723,1.613,1.613v9.474c0,.89-.723,1.613-1.613,1.613h-3.729c-.89,0-1.612-.722-1.612-1.612v-9.475c0-.89,.723-1.613,1.613-1.613Z" transform="translate(1.477 139.348) rotate(-5.717)"/>
    <rect class="cls-3" x="1379.545" y="49.853" width="6.954" height="12.7" rx="1.613" ry="1.613" transform="translate(1.28 138.045) rotate(-5.717)"/>
  </g>
  <path class="cls-1" d="M1558.663,235.36v-.102l-.002-.034-.013-.122v-.013l-.027-.122-.002-.011-.035-.112-.005-.019-.042-.098-.012-.028-.048-.086-.018-.033-.067-.099-.01-.013-11.325-14.953-.01-.011-.077-.092-.027-.027-.071-.069-.024-.019-.083-.066-.018-.012-.096-.064-.012-.006-.108-.057-.013-.005-.113-.046-.034-.01-.097-.029-.137-.026-27.167-3.749c-.763-.105-1.465,.428-1.57,1.19l-8.038,58.239c-.105,.762,.427,1.465,1.189,1.57l40.306,5.563c.762,.105,1.465-.428,1.57-1.19l6.224-45.099,.012-.139Zm-11.798-11.483l7.264,9.591-8.427-1.163,1.163-8.428Zm-34.554,49.778l7.657-55.479,24.407,3.368-1.623,11.76c-.105,.762,.427,1.465,1.189,1.57l11.759,1.623-5.843,42.34-37.545-5.182Z"/>
  <path class="cls-1" d="M950.689,82.228c-.154-.637-.725-1.086-1.381-1.086h-3.839l4.489-2.309c.583-.3,.886-.96,.731-1.598-.154-.637-.725-1.087-1.381-1.087h-7.277l2.816-3.153,.005-.006c.088-.101,.16-.21,.216-.326l.009-.02c.053-.115,.09-.235,.11-.358l.006-.038,.015-.178v-.004l-.01-.178-.007-.048-.034-.164-.003-.014-.062-.171-.008-.022-.012-.023-.074-.138-.016-.027-.1-.135-.05-.056-.03-.034-12.872-13.129,12.917-14.467c.373-.418,.466-1.016,.237-1.527-.229-.512-.737-.841-1.297-.841h-40.633c-.404,0-.79,.173-1.06,.475l-13.802,15.459-.012,.014-.113,.148-.008,.013-.084,.15-.016,.034c-.051,.112-.087,.229-.107,.348l-.007,.044-.014,.171v.009l.01,.179,.006,.044,.036,.176v.002l.066,.179,.005,.016,.009,.017,.088,.163,.002,.004,.11,.147,.033,.037,.041,.046,12.871,13.129-12.916,14.466-.012,.015-.112,.145-.011,.018-.081,.145-.017,.035-.067,.173v.003l-.04,.173-.007,.045-.013,.153v.041l.01,.171,.006,.04,.031,.153,.009,.032,.064,.178,.002,.007,.009,.015,.079,.148,.018,.03,.108,.144,.026,.029,.105,.106,.03,.027,.143,.108,.025,.015,.139,.077,.032,.015,.173,.066,.015,.004,.164,.036,.045,.007,.186,.013h40.633l.16-.009,.05-.008,.108-.019,.057-.016,.096-.03,.059-.022,.09-.04,.03-.013,9.308-4.787h3.494l-13.796,7.095h-40.288c-.785,0-1.421,.637-1.421,1.422s.636,1.421,1.421,1.421h40.632c.226,0,.449-.054,.65-.158l9.308-4.787h3.495l-13.797,7.096h-40.288c-.785,0-1.421,.636-1.421,1.421s.636,1.421,1.421,1.421h40.632c.226,0,.449-.054,.65-.157l9.308-4.787h3.495l-13.797,7.095h-40.288c-.785,0-1.421,.636-1.421,1.421s.636,1.421,1.421,1.421h40.632c.226,0,.449-.054,.65-.157l19.324-9.938c.583-.3,.886-.96,.731-1.598-.154-.637-.725-1.087-1.381-1.087h-3.839l4.489-2.308c.583-.3,.885-.96,.731-1.598-.154-.638-.725-1.087-1.381-1.087h-3.839l4.489-2.308c.583-.3,.886-.961,.731-1.599m-7.252-3.237l-7.292,3.75,3.348-3.75h3.944Zm-50.911,7.095l11.265-12.616h19.313c.785,0,1.422-.637,1.422-1.421s-.637-1.422-1.422-1.422h-19.354l-11.015-11.234h5.215c.785,0,1.421-.637,1.421-1.422s-.636-1.421-1.421-1.421h-5.424l11.265-12.616h36.821l-11.264,12.616h-25.715c-.785,0-1.421,.636-1.421,1.421s.636,1.421,1.421,1.421h25.754l11.015,11.235h-11.615c-.784,0-1.421,.637-1.421,1.421s.637,1.422,1.421,1.422h11.825l-11.264,12.616h-36.822Z"/>
  <path class="cls-1" d="M1487.143,802.299c-.004-.291-.115-.59-.301-.816l-2.59-3.108c.565-.141,.985-.65,.985-1.259,0-.718-.582-1.3-1.3-1.3h-23.568c-.718,0-1.3,.582-1.3,1.3,0,.609,.42,1.118,.985,1.26l-2.59,3.107-.002,.003c-.191,.231-.299,.529-.299,.829v31.366c0,.298,.108,.598,.299,.829l.002,.003,4.333,5.199c.247,.296,.612,.467,.998,.467h18.716c.386,0,.751-.171,.998-.467l4.333-5.199c.19-.228,.301-.531,.301-.832v-31.382Zm-2.6,10.24h-5.335c-1.634-2.107-4.188-3.466-7.055-3.466s-5.422,1.359-7.055,3.466h-5.336v-8.925h24.781v8.925Zm0,8.318h-3.935c.304-.898,.47-1.86,.47-2.859s-.166-1.961-.47-2.859h3.935v5.718Zm-24.781-5.718h3.936c-.304,.898-.47,1.859-.47,2.859s.165,1.961,.47,2.859h-3.936v-5.718Zm6.066,2.859c0-3.488,2.837-6.325,6.325-6.325s6.325,2.837,6.325,6.325-2.837,6.325-6.325,6.325-6.325-2.837-6.325-6.325m-6.066,5.459h5.336c1.634,2.107,4.188,3.465,7.055,3.465s5.421-1.358,7.055-3.465h5.335v8.924h-24.781v-8.924Zm21.14-25.041l2.166,2.599h-21.83l2.166-2.599h17.498Zm0,39.164h-17.498l-2.166-2.599h21.83l-2.166,2.599Z"/>
  <path class="cls-1" d="M675.936,836.414c-.586-.524-1.312-.852-2.078-.955-.314-3.026-1.112-5.824-2.326-8.078-1.774-3.294-4.248-5.107-6.967-5.107-.96,0-1.889,.227-2.768,.664l-6.512,1.526-6.928-1.136-5.071,2.158-9.102-3.213h-6.396v1.667c0,2.267-1.845,4.111-4.111,4.111h-1.143l-.412,1.065c-2.365,6.111-2.366,12.345-.002,18.53l.409,1.072h1.148c2.266,0,4.111,1.844,4.111,4.111v1.666h8.702l6.475-2.055,2.963,2.01,8.342-1.057,7.992,.648c.74,.299,1.511,.454,2.303,.454,3.324,0,6.309-2.81,8.003-7.434l.345,.039c.143,.016,.286,.024,.428,.024,.952,0,1.879-.351,2.595-.992,.823-.736,1.295-1.793,1.295-2.897v-3.924c0-1.104-.472-2.16-1.295-2.897m-51.053,9.068c-1.621-4.794-1.622-9.457-.005-14.194,.906-.148,1.757-.46,2.522-.904-1.249,5.327-1.249,10.674,0,16.002-.764-.444-1.613-.756-2.517-.904m29.311,4.56l-7.436,.943-3.26-2.212-7.524,2.389h-3.533c-1.761-4.255-2.653-8.548-2.653-12.778s.892-8.522,2.653-12.777h1.172l9.786,3.454,5.374-2.287,6.627,1.087,2.22-.52-.022,.04c-1.598,2.967-2.477,6.874-2.477,11.004s.879,8.037,2.477,11.003c.184,.342,.376,.667,.575,.977l-3.979-.323Zm10.371,1.12c-1.415,0-2.885-1.222-4.032-3.354-1.341-2.49-2.079-5.836-2.079-9.424,0-7.529,3.22-12.777,6.111-12.777,1.415,0,2.884,1.222,4.032,3.354,1.001,1.858,1.665,4.193,1.938,6.75l-5,.555c-.229-.209-.482-.326-.748-.326-1.043,0-1.889,1.791-1.889,4v2.667c0,2.209,.846,4,1.889,4,.266,0,.518-.117,.748-.327l3.603,.4c-1.176,2.777-2.872,4.482-4.573,4.482m9.333-7.927c0,.216-.116,.352-.185,.414-.069,.062-.217,.162-.432,.138l-6.617-.735c.008-.146,.012-.295,.012-.445v-2.667c0-.15-.005-.299-.012-.445l6.617-.735c.214-.024,.363,.076,.432,.138,.069,.062,.185,.198,.185,.414v3.923Z"/>
  <path class="cls-1" d="M1754.117,577.868c-1.474-3.422-4.127-7.318-7.471-10.967-3.344-3.651-6.992-6.635-10.272-8.402-3.507-1.89-6.264-2.175-7.764-.802l-2.635,2.414c-1.498,1.373-1.456,4.145,.121,7.804,1.421,3.299,3.938,7.038,7.114,10.572-.8,.076-1.59,.169-2.364,.278-4.573-4.879-9.357-8.635-10.286-9.352-.466-1.129-1.085-2.26-1.846-3.365-.231-.336-.69-.421-1.025-.19-.336,.232-.421,.691-.19,1.027,.65,.943,1.187,1.905,1.602,2.861l-.835,.985-4.99-4.227c-.311-.263-.776-.224-1.039,.087-.263,.311-.225,.776,.086,1.039l4.99,4.227-1.474,1.74-4.99-4.227c-.311-.263-.776-.225-1.039,.087-.263,.31-.225,.776,.086,1.04l4.99,4.227-.835,.985c-2.961-.735-5.521-2.349-7.176-3.604-.417-.316-.678-.777-.736-1.296-.057-.518,.097-1.023,.435-1.421l5.062-5.976c.337-.399,.807-.633,1.329-.662,.522-.029,1.019,.152,1.4,.513,.351,.331,.697,.677,1.025,1.026,.279,.298,.747,.312,1.043,.031,.296-.279,.311-.746,.031-1.042-.349-.371-.714-.737-1.086-1.089-.678-.64-1.565-.965-2.496-.913-.929,.053-1.772,.472-2.373,1.183l-5.062,5.976c-.602,.711-.877,1.611-.775,2.536,.102,.927,.567,1.747,1.311,2.311,1.816,1.377,4.661,3.161,7.981,3.924,.572,.533,2.745,2.52,5.754,4.868-2.543,1.417-3.856,3.072-3.734,4.756,.033,.45,.167,.883,.398,1.297l.011,.025,2.206,4.449c.81,1.631,2.286,2.81,4.054,3.235,2.336,.563,6.497,1.133,13.054,.656,4.699-.342,8.111-1.035,10.521-1.748l6.411,5.431c1.047,.886,1.163,2.29,.277,3.337-.441,.52-1.002,.819-1.622,.864h-.01c-.603,.042-1.208-.167-1.705-.588l-8.183-6.931c-.311-.263-.776-.224-1.039,.087-.263,.31-.225,.776,.086,1.039l8.183,6.931c.792,.67,1.771,1.002,2.759,.935h.017c1.009-.075,1.947-.565,2.641-1.384,1.415-1.672,1.223-4-.449-5.417l-5.721-4.845c.415-.152,.787-.3,1.118-.442,1.411-.608,2.492-1.792,2.967-3.249l1.276-3.916,1.006-.921h0c1.497-1.374,1.454-4.145-.123-7.803m-38.776-1.402l4.719-5.571c1.39,1.093,5.202,4.19,9.018,8.152-3.703,.737-7.814,2.259-7.893,2.295-2.777-2.134-4.912-4.027-5.844-4.876m2.114,10.254c-.096-1.313,1.608-2.857,4.557-4.131,3.127-1.35,7.931-2.298,12.52-2.683,.723,.75,1.458,1.467,2.197,2.146-.686,.021-1.377,.056-2.066,.106-3.804,.277-7.483,.99-10.356,2.008-.59,.208-1.146,.43-1.651,.658-.625,.281-.996,.904-.946,1.586s.507,1.245,1.165,1.432c.533,.153,1.115,.291,1.73,.412,.468,.092,1.576,.257,1.628,.253,.338-.025,.626-.281,.676-.632,.058-.403-.223-.777-.626-.835-.48-.068-.948-.148-1.392-.235-.574-.114-1.116-.243-1.61-.384-.026-.007-.092-.026-.099-.12s.056-.122,.081-.133c.469-.211,.986-.417,1.538-.612,2.753-.976,6.295-1.661,9.971-1.928,1.213-.088,2.427-.128,3.618-.122,1.227,1.024,2.452,1.933,3.646,2.704-2.15,.517-4.536,.879-6.999,1.058-1.826,.133-3.632,.16-5.369,.081-.408-.018-.752,.296-.771,.704-.018,.407,.296,.752,.704,.771,1.795,.082,3.66,.053,5.544-.084,3.1-.226,6.089-.734,8.671-1.473l.027,.014c1.152,.621,2.221,1.068,3.194,1.34-3.151,1.233-7.283,2.094-11.724,2.418-10.282,.748-17.662-1.677-17.855-4.321m33.098,3.331c-.343,1.055-1.126,1.911-2.148,2.351-2.144,.923-6.107,2.126-12.806,2.614-6.368,.464-10.368-.079-12.602-.617-1.341-.324-2.463-1.218-3.077-2.457l-.721-1.454c.841,.414,1.837,.778,2.98,1.084,3.6,.966,8.3,1.3,13.238,.94,5.636-.41,11.17-1.859,14.634-3.661,.373-.077,.712-.203,1.017-.378l-.515,1.579Zm.053-3.054c-.971,.89-3.239,.511-6.067-1.013-3.138-1.692-6.648-4.568-9.884-8.1-6.964-7.602-9.639-14.895-7.684-16.686l.545-.5c.013,1.331,.416,2.952,1.214,4.802,1.474,3.422,4.128,7.316,7.472,10.967,3.344,3.65,6.991,6.634,10.272,8.402,1.773,.956,3.353,1.499,4.678,1.628l-.546,.5Zm2.635-2.414c-.971,.89-3.239,.511-6.066-1.013-3.139-1.692-6.649-4.568-9.885-8.099-3.235-3.532-5.794-7.28-7.205-10.555-1.271-2.95-1.451-5.242-.479-6.131,.297-.273,.717-.426,1.237-.464,1.177-.086,2.868,.42,4.829,1.477,3.138,1.692,6.649,4.568,9.884,8.1,6.965,7.602,9.639,14.895,7.684,16.686"/>
  <path class="cls-1" d="M287.088,257.267c-1.751-.946-3.692-1.532-5.768-1.741l-2.52-.254c-1.05-.106-2.084,.096-2.998,.571-.351-.285-.738-.519-1.147-.705l.11-1.092c.021-.207,.005-.436-.05-.7-.065-.313-.176-.621-.336-.94-1.029-2.031-1.451-4.302-1.223-6.568l.452-4.489c.231-2.288-2.392-4.401-7.795-6.276-4.754-1.651-11.148-2.941-18.004-3.632s-13.378-.703-18.366-.034c-5.669,.759-8.66,2.306-8.891,4.595l-.452,4.489c-.236,2.346-1.153,4.549-2.651,6.37-.318,.386-.513,.854-.563,1.351-.098,.977,.384,1.931,1.229,2.431,1.962,1.158,7.475,3.968,17.442,5.924-.032,.146-.054,.291-.068,.429l-1.215,12.058c-.015,.15-.018,.3-.012,.448-4.46-.02-8.355,.301-11.341,.94-4.016,.862-6.063,2.217-6.257,4.144l-.452,4.489c-.237,2.347-1.153,4.549-2.651,6.37-.317,.387-.512,.854-.562,1.352-.098,.977,.384,1.93,1.23,2.43,2.828,1.669,11.121,5.723,27.021,7.326s24.835-.715,27.939-1.786c.928-.321,1.591-1.158,1.69-2.135,.05-.498-.047-.996-.282-1.438-1.105-2.083-1.563-4.424-1.327-6.771l.373-3.701c3.706,.006,7.248-.236,10.301-.72,6.245-.991,9.542-2.793,9.801-5.358l1.215-12.058c.141-1.398-.416-3.456-3.868-5.321m-8.879,10.944c1.024-.114,2.019-.25,2.971-.409,.697-.117,1.356-.243,1.98-.377l-.29,2.874c-.134,1.33-1.325,2.303-2.655,2.169s-2.302-1.325-2.168-2.655l.161-1.602Zm2.57-2.8c-5.304,.89-11.924,1.038-18.164,.41s-12.698-2.096-17.718-4.026c-1.403-.539-2.536-1.055-3.451-1.534,6.263-.306,13.803-.054,21.654,.737s15.29,2.049,21.366,3.599c-.992,.287-2.205,.566-3.688,.814m-14.78,3.1c1.623,.087,3.253,.125,4.86,.114l-.289,2.869c-.134,1.33-1.325,2.303-2.655,2.169s-2.303-1.325-2.169-2.655l.252-2.497h.001Zm-12.021-1.587c1.574,.331,3.177,.62,4.786,.858l-.252,2.497c-.134,1.329-1.325,2.303-2.655,2.169s-2.303-1.325-2.169-2.655l.289-2.869Zm-11.814-3.632c.584,.256,1.205,.511,1.866,.765,.901,.347,1.849,.678,2.83,.994l-.161,1.602c-.134,1.33-1.326,2.303-2.655,2.169s-2.303-1.325-2.169-2.655l.29-2.874Zm-12.397-29.483c4.806-.644,11.128-.628,17.8,.044s12.871,1.918,17.451,3.509c5.171,1.796,6.219,3.344,6.179,3.745s-1.376,1.709-6.802,2.436c-4.806,.644-11.128,.629-17.8-.043s-12.87-1.919-17.451-3.51c-5.171-1.796-6.219-3.344-6.179-3.744s1.376-1.709,6.802-2.436m-10.469,14.648l.023-.056c1.804-2.191,2.907-4.843,3.192-7.667l.122-1.211c1.302,.965,3.209,1.886,5.713,2.756,4.755,1.651,11.148,2.941,18.004,3.632s13.378,.703,18.366,.034c2.629-.352,4.68-.874,6.148-1.56l-.122,1.211c-.275,2.727,.235,5.461,1.472,7.905,.063,.124,.105,.238,.126,.337l.005,.03-.075,.745-3.617-.365c.268-2.659-1.678-5.041-4.338-5.309s-5.042,1.677-5.31,4.336l-2.564-.258c-.327-2.131-2.063-3.861-4.306-4.087s-4.289,1.123-5.035,3.146l-.761-.077c-.653-.066-1.301-.092-1.941-.08-.281-2.185-2.038-3.974-4.321-4.205-2.661-.268-5.042,1.677-5.31,4.336l-.186,1.844c-.829-.177-1.622-.361-2.381-.547l.277-2.746c.268-2.659-1.678-5.041-4.338-5.309s-5.041,1.677-5.309,4.336l-.064,.633c-1.621-.701-2.747-1.309-3.422-1.708l-.05-.099Zm46.943,5.575c-.876-.007-1.728,.196-2.496,.596-.674-.545-1.469-.914-2.327-1.082l.003-.026c.134-1.329,1.325-2.303,2.655-2.169s2.303,1.326,2.169,2.655l-.003,.026Zm-12.353-1.212c-.771,.036-1.519,.237-2.201,.592-.597-.484-1.291-.831-2.04-1.02,.485-.711,1.333-1.143,2.249-1.051s1.66,.685,1.993,1.478m-16.904,1.448l.199-1.973c.134-1.329,1.325-2.303,2.655-2.169,1.117,.113,1.979,.973,2.148,2.034-.556,.101-1.105,.231-1.644,.395-1.55,.47-2.623,1.07-3.358,1.713m-7.153-1.542c-1.804-.506-3.372-1.025-4.718-1.525l.134-1.327c.134-1.329,1.325-2.303,2.654-2.169s2.303,1.326,2.169,2.655l-.238,2.366Zm11.214,2.148c1.597-.483,3.298-.639,5.055-.462l2.52,.254c.777,.078,1.478,.455,1.973,1.06l.767,.939,.939-.767c.605-.494,1.366-.724,2.144-.645l6.236,.629c.777,.078,1.478,.455,1.973,1.06l.767,.939,.939-.767c.605-.494,1.366-.724,2.144-.645l6.236,.629c.777,.078,1.478,.455,1.973,1.06l.767,.939,.939-.767c.605-.494,1.366-.724,2.144-.645l2.52,.254c1.757,.177,3.393,.67,4.861,1.462,1.028,.556,2.736,1.678,2.608,2.945-.015,.144-.171,.393-.563,.699-6.658-1.945-15.375-3.524-24.637-4.457s-18.119-1.127-25.031-.549c-.324-.378-.428-.653-.413-.797,.129-1.268,2.024-2.026,3.143-2.366m-17.615,17.94c3.014-.647,7.232-.954,11.926-.875,1.313,1.508,3.803,2.954,7.454,4.32,5.066,1.898,11.755,3.366,18.348,4.03,1.678,.169,3.371,.289,5.054,.359-.974,.504-2.72,1.08-5.705,1.479-4.806,.645-11.128,.629-17.8-.043s-12.87-1.918-17.451-3.51c-5.171-1.795-6.219-3.344-6.179-3.743,.031-.308,.873-1.272,4.353-2.018m2.512,18.491c-1.806-.509-3.375-1.03-4.718-1.527l.133-1.318c.134-1.33,1.325-2.303,2.654-2.169s2.303,1.325,2.169,2.655l-.238,2.359Zm11.937,2.414c-1.701-.229-3.297-.487-4.795-.765l.209-2.073c.134-1.33,1.325-2.303,2.655-2.169s2.302,1.325,2.168,2.655l-.237,2.352Zm12.086,.937c-1.523-.027-3.139-.092-4.851-.207l.237-2.352c.134-1.33,1.325-2.303,2.655-2.169s2.303,1.325,2.169,2.655l-.209,2.073h-.001Zm12.257-.746c-1.416,.22-3.057,.416-4.928,.555l.238-2.359c.134-1.33,1.325-2.303,2.655-2.169s2.303,1.325,2.169,2.655l-.133,1.318Zm6.174-1.433c-.674,.232-1.9,.608-3.692,.984l.063-.626c.268-2.66-1.678-5.042-4.337-5.31s-5.042,1.678-5.31,4.337l-.276,2.741c-.78,.032-1.595,.052-2.442,.061l.185-1.84c.268-2.659-1.677-5.042-4.336-5.31s-5.042,1.678-5.31,4.337l-.242,2.404c-.397-.035-.799-.074-1.207-.115s-.808-.083-1.205-.128l.242-2.404c.268-2.659-1.677-5.042-4.336-5.31s-5.042,1.678-5.31,4.337l-.185,1.84c-.828-.178-1.622-.36-2.381-.547l.276-2.741c.268-2.66-1.678-5.042-4.337-5.31s-5.041,1.678-5.309,4.338l-.063,.625c-1.683-.725-2.809-1.338-3.423-1.7l-.05-.1,.023-.055c1.804-2.192,2.907-4.843,3.192-7.668l.122-1.211c1.302,.965,3.209,1.886,5.713,2.756,4.755,1.651,11.148,2.941,18.004,3.632s13.378,.703,18.366,.034c2.629-.352,4.68-.874,6.148-1.56l-.122,1.211c-.285,2.825,.269,5.642,1.598,8.15l.011,.058-.069,.088Zm11.166-14.868c-5.146,.816-11.766,.915-18.161,.27s-12.862-2.062-17.741-3.889c-5.676-2.125-7.043-3.998-6.973-4.693l.87-8.635c.623,.502,1.384,1.001,2.286,1.496l-.379,3.765c-.268,2.659,1.677,5.041,4.336,5.31s5.042-1.678,5.31-4.337l.114-1.133c.776,.217,1.568,.424,2.374,.621l-.319,3.167c-.268,2.659,1.677,5.042,4.336,5.31s5.042-1.678,5.31-4.337l.244-2.422c.402,.048,.804,.091,1.205,.131s.803,.078,1.207,.112l-.244,2.422c-.268,2.659,1.678,5.042,4.336,5.31s5.042-1.678,5.31-4.337l.319-3.167c.827-.032,1.645-.077,2.45-.135l-.114,1.133c-.268,2.659,1.678,5.042,4.337,5.31s5.041-1.678,5.309-4.337l.379-3.765c.982-.305,1.828-.642,2.538-1.009l-.87,8.634c-.07,.694-1.783,2.257-7.769,3.207"/>
  <path class="cls-1" d="M1208.792,671.23c-.218-.232-.522-.363-.841-.363h-.412l1.24-17.577c.044-.636-.434-1.187-1.07-1.232l-1.08-.076,.26-3.686c.045-.636-.434-1.187-1.069-1.232-.636-.044-1.187,.434-1.232,1.069l-.26,3.686-1.08-.076c-.307-.022-.607,.079-.838,.28-.231,.2-.373,.484-.394,.79l-1.274,18.054h-.377v-19.646c.013-.346,.032-2.232-1.101-3.427-.584-.616-1.373-.942-2.28-.942s-1.695,.326-2.28,.942c-1.133,1.194-1.114,3.081-1.101,3.427v19.646h-.37l-.585-9.177c-.009-.146-.046-.289-.109-.421l-2.58-5.436-.082-1.285c-.04-.636-.591-1.119-1.224-1.078-.636,.041-1.119,.589-1.078,1.225l.082,1.284-1.87,5.72c-.046,.139-.064,.286-.055,.432l.557,8.736h-.251c-.318,0-.622,.131-.84,.363-.218,.232-.331,.543-.311,.861l1.522,24.66c.038,.609,.542,1.083,1.152,1.083h18.868c.609,0,1.113-.474,1.151-1.083l1.523-24.66c.019-.317-.093-.629-.311-.861m-10.734-.363h-2.147v-17.459h2.147v17.459Zm-1.68-21.485c.098-.104,.256-.223,.606-.223s.506,.118,.604,.22c.385,.402,.483,1.313,.472,1.721h-2.152c-.013-.393,.083-1.311,.47-1.718m8.937,4.82h.003l1.078,.076-.299,4.244-2.161-.153,.3-4.243,1.079,.076Zm-1.541,6.469l2.161,.152-.709,10.044h-2.171l.719-10.196Zm-15.726,1.534l.972-2.971,1.34,2.824,.562,8.809h-2.322l-.552-8.662Zm.597,33.322l-.12-1.945h9.323c.637,0,1.154-.517,1.154-1.154s-.517-1.153-1.154-1.153h-9.466l-1.117-18.101h19.459l-1.117,18.101h-3.145c-.637,0-1.153,.516-1.153,1.153s.516,1.154,1.153,1.154h3.002l-.12,1.945h-16.699Z"/>
  <g>
    <path class="cls-1" d="M1727.633,748.769c-8.748-4.473-13.29-8.412-13.335-8.45-.383-.336-.94-.382-1.373-.113-14.011,8.722-28.017,12.301-37.299,13.768-10.079,1.593-16.923,1.11-16.99,1.105-.636-.048-1.191,.43-1.239,1.066-.017,.229,.035,.459,.148,.659,5.979,10.503,18.91,16.782,19.659,17.139,5.068,2.607,9.94,5.58,14.577,8.894,5.146,3.693,7.76,7.483,8.226,11.931,.066,.626,.62,1.084,1.247,1.031l.024-.002c.636-.067,1.096-.635,1.029-1.27-.533-5.08-3.536-9.518-9.178-13.568-4.736-3.385-9.712-6.419-14.889-9.082l-.03-.014c-.12-.058-11.443-5.499-17.525-14.398,5.1,.023,10.192-.376,15.227-1.194,9.355-1.472,23.395-5.038,37.526-13.663,1.579,1.266,5.952,4.542,13.144,8.22,3.555,1.818,8.606,4.885,12.478,9.167,4.717,5.223,4.307,13.281-.917,17.997-.524,.474-1.088,.904-1.684,1.284-1.796,1.135-3.653,2.171-5.562,3.104l-.067,.036c-.249,.143-25.001,14.421-32.08,17.081l-.062,.031-.062,.024c-2.329,1.203-4.593,1.152-6.729-.153-1.055-.66-1.945-1.552-2.604-2.608-.112-.174-.219-.335-.345-.527-.133-.2-.29-.436-.506-.768-3.97-6.128-8.938-11.546-14.7-16.032-3.886-3.019-7.839-5.694-10.977-7.703l-.03-.02c-1.366-.874-2.58-1.624-3.56-2.218l3.104-.599c.625-.128,1.028-.739,.901-1.365-.126-.616-.721-1.018-1.34-.906l-6.102,1.179c-.627,.121-1.036,.728-.915,1.354,.064,.334,.272,.622,.568,.789,.036,.02,1.531,.864,3.856,2.301-1.589,.395-3.531,.869-5.511,1.333-.622,.147-1.007,.769-.861,1.39,.087,.371,.352,.675,.706,.813,.051,.021,5.226,2.072,17.656,9.9,.546,.331,1.257,.157,1.588-.389,.323-.532,.166-1.226-.356-1.567-7.353-4.631-12.178-7.26-14.976-8.667,1.78-.433,3.359-.828,4.458-1.106,3.014,1.944,6.726,4.471,10.374,7.307,5.069,3.945,9.502,8.644,13.147,13.931-14.427-8.632-32.828-16.488-33.036-16.576-.587-.25-1.266,.025-1.516,.612-.25,.587,.024,1.267,.612,1.516,.232,.099,23.326,9.958,37.868,19.648,.405,.351,.837,.669,1.294,.95,1.592,1.006,3.467,1.473,5.346,1.33,1.251-.118,2.465-.479,3.577-1.062,7.251-2.747,30.924-16.389,32.338-17.205,1.974-.965,3.894-2.038,5.75-3.211,7.009-4.474,9.062-13.783,4.589-20.79-.449-.705-.957-1.37-1.517-1.991-4.107-4.543-9.413-7.769-13.141-9.676"/>
    <path class="cls-1" d="M1680.628,761.002c-.192-.609-.841-.947-1.45-.755-1.956,.616-5.225,1.013-5.258,1.018-.634,.075-1.087,.649-1.013,1.283,.072,.62,.625,1.07,1.247,1.017l.042-.004c.142-.017,3.514-.427,5.676-1.108,.609-.192,.948-.841,.756-1.45h0Z"/>
    <path class="cls-1" d="M1681.163,766.261l.207-.037,1.58-.427c.616-.171,.976-.808,.805-1.424-.169-.61-.797-.97-1.409-.808l-1.581,.427c-.616,.167-.98,.803-.813,1.419,.146,.538,.655,.895,1.211,.849Z"/>
    <path class="cls-1" d="M1682.353,770.786l.17-.027c1.85-.456,3.656-1.075,5.397-1.848,.577-.273,.823-.963,.55-1.54-.27-.569-.946-.817-1.52-.558-1.601,.706-3.26,1.274-4.959,1.697-.622,.148-1.005,.772-.856,1.393,.132,.555,.65,.931,1.219,.884"/>
    <path class="cls-1" d="M1718.32,759.472c.132-.011,.26-.045,.38-.099l.636-.289c.588-.248,.862-.927,.614-1.515-.249-.588-.928-.863-1.516-.614l-.055,.026-.633,.287c-.582,.264-.839,.949-.575,1.531,.201,.446,.662,.716,1.15,.675h0Z"/>
    <path class="cls-1" d="M1696.02,768.601c.336,.301,.814,.379,1.227,.201,.085-.036,8.592-3.69,16.581-7.244,.587-.251,.858-.931,.607-1.517-.252-.587-.931-.859-1.518-.606l-.028,.011c-6.675,2.97-13.713,6.009-15.88,6.942-2.571-2.25-6.023-4.93-8.13-6.536,11.155-3.241,21.68-8.359,24.359-9.703,4.265,3.162,9.766,6.422,10.008,6.565,.549,.325,1.258,.143,1.583-.407,.325-.55,.143-1.258-.407-1.583-.061-.037-6.145-3.643-10.367-6.852-.357-.271-.837-.311-1.234-.104-.133,.068-13.382,6.932-26.804,10.479-.617,.163-.986,.797-.822,1.413,.067,.253,.218,.476,.429,.633,.065,.048,6.634,4.935,10.396,8.306"/>
    <path class="cls-1" d="M1729.106,775.519c.126,.626,.736,1.031,1.362,.905,.1-.02,.195-.054,.286-.098l3.48-1.729c3.474-1.725,4.892-5.94,3.167-9.415-.222-.447-.492-.87-.804-1.261-3.186-3.973-7.619-5.79-7.807-5.865-.317-.128-.676-.109-.977,.053l-7.77,4.159c-.564,.301-.776,1.002-.474,1.564,.12,.225,.312,.404,.545,.508,7.291,3.285,8.977,11.103,8.993,11.179m-.703-15.104c1.151,.549,4.151,2.161,6.389,4.952,1.623,2.034,1.29,4.997-.744,6.62-.261,.209-.544,.389-.844,.538l-2.227,1.107c-.787-2.401-2.919-7.261-7.933-10.35l5.359-2.868Z"/>
    <path class="cls-1" d="M1714.223,765.177l-14.596,6.636c-.588,.249-.863,.928-.614,1.516,.249,.588,.928,.862,1.516,.613l.054-.025,14.597-6.637c.574-.279,.812-.972,.533-1.545-.268-.553-.924-.798-1.49-.559"/>
    <path class="cls-1" d="M1706.91,776.601c.269,.578,.955,.83,1.534,.561h.002l11.322-5.275c.581-.264,.838-.949,.574-1.531-.265-.581-.95-.838-1.531-.574l-.02,.01-11.321,5.273c-.578,.269-.83,.956-.56,1.535h0Z"/>
    <path class="cls-1" d="M1700.492,780.788c.136-.011,.268-.047,.391-.104l1.6-.745c.579-.27,.829-.957,.56-1.537-.27-.578-.957-.828-1.536-.56l-1.6,.746c-.578,.27-.829,.957-.56,1.537,.206,.438,.663,.704,1.145,.663"/>
    <path class="cls-1" d="M1705.608,786.425c.149-.013,.296-.054,.428-.122l16.709-8.536c.569-.29,.794-.986,.503-1.555-.291-.569-.986-.794-1.555-.504l-16.709,8.536c-.569,.291-.794,.987-.503,1.556,.214,.417,.659,.665,1.127,.626"/>
  </g>
  <path class="cls-1" d="M616.936,249.6c1.563-6.334-.967-13.168-6.272-16.925-7.296-5.168-16.95-3.562-22.198,3.049-.665-.082-1.339-.124-2.012-.124-8.941,0-16.216,7.274-16.216,16.216,0,7.26,4.83,13.627,11.794,15.603v8.083c0,2.438,1.984,4.422,4.422,4.422s4.423-1.984,4.423-4.422v-3.703c2.034,.428,4.128-.629,4.969-2.571l3.171-7.327c7.984,1.074,15.854-3.935,17.919-12.301m-43.75,2.216c0-7.316,5.952-13.268,13.268-13.268l.209,.004c-.137,.272-.266,.549-.388,.83-1.494,3.453-1.741,7.342-.695,10.949,.919,3.167,2.789,5.987,5.32,8.055l-.346,.801h-15.12c-1.425-2.127-2.248-4.674-2.248-7.371m13.268,25.16c-.813,0-1.474-.661-1.474-1.474v-10.446l-1.181-.24c-2.133-.433-4.063-1.374-5.674-2.68h11.152l-1.548,3.578c-.547,1.264-.483,2.693,.2,3.917v5.871c0,.813-.662,1.474-1.475,1.474m10.796-18.415l-4.11,9.495c-.323,.746-1.193,1.09-1.939,.768-.736-.319-1.093-1.186-.767-1.939,.407-.941,3.715-8.582,4.111-9.496-.522-.446-3.259-1.815-5.132-5.403l15.313,6.628c-3.885,1.087-6.801,.021-7.476-.053m11.107-1.588l-20.241-8.762c-.463-2.518-.206-5.182,.865-7.657,3.312-7.652,12.864-10.513,19.979-5.473,4.339,3.074,6.394,8.624,5.114,13.812-.857,3.473-2.962,6.291-5.717,8.08"/>
  <path class="cls-1" d="M854.271,530.31c-3.252,0-5.897,2.645-5.897,5.897s2.645,5.896,5.897,5.896,5.897-2.645,5.897-5.896-2.645-5.897-5.897-5.897m0,8.845c-1.626,0-2.948-1.323-2.948-2.948s1.322-2.949,2.948-2.949,2.948,1.323,2.948,2.949-1.322,2.948-2.948,2.948"/>
  <path class="cls-1" d="M1364.103,581.34c-11.87,0-21.526,9.656-21.526,21.526s9.656,21.527,21.526,21.527,21.527-9.657,21.527-21.527-9.657-21.526-21.527-21.526m14.089,10.458c.227,.29,.452,.582,.661,.885,.118,.17,.226,.346,.339,.519,.183,.284,.36,.573,.528,.868,.107,.189,.209,.381,.308,.574,.154,.297,.299,.598,.437,.904,.088,.198,.177,.397,.259,.598,.13,.322,.247,.65,.359,.98,.066,.194,.136,.388,.195,.586,.114,.377,.208,.764,.297,1.151,.036,.157,.081,.31,.113,.469,.109,.54,.193,1.087,.251,1.642-8.38-.885-15.059-7.563-15.943-15.943,.555,.058,1.102,.142,1.641,.251,.159,.032,.312,.077,.469,.113,.389,.089,.775,.183,1.152,.297,.197,.059,.39,.13,.586,.195,.33,.112,.657,.229,.979,.359,.202,.082,.4,.171,.599,.259,.305,.137,.607,.283,.904,.436,.192,.1,.385,.202,.574,.309,.295,.166,.584,.345,.868,.528,.174,.111,.349,.22,.518,.338,.303,.21,.596,.434,.885,.662,.137,.108,.278,.208,.411,.319,.831,.694,1.597,1.46,2.29,2.29,.112,.133,.213,.275,.32,.411m-17.624,28.654c-.159-.033-.312-.077-.469-.113-.388-.089-.774-.183-1.151-.297-.198-.059-.391-.13-.586-.195-.33-.112-.657-.229-.98-.36-.201-.081-.4-.17-.598-.258-.306-.138-.607-.283-.904-.437-.193-.1-.385-.201-.574-.308-.295-.167-.584-.345-.868-.528-.174-.111-.349-.221-.519-.339-.303-.209-.595-.434-.885-.661-.136-.108-.277-.208-.411-.32-.83-.693-1.596-1.46-2.29-2.29-.111-.132-.211-.274-.319-.411-.228-.289-.452-.582-.662-.885-.118-.169-.226-.345-.338-.518-.183-.284-.361-.573-.528-.868-.107-.19-.209-.382-.309-.574-.153-.297-.298-.599-.436-.904-.088-.199-.177-.397-.259-.599-.13-.321-.248-.649-.359-.979-.066-.195-.136-.388-.195-.586-.114-.377-.208-.764-.297-1.152-.036-.157-.082-.31-.113-.469-.109-.539-.193-1.086-.252-1.641,8.381,.884,15.059,7.563,15.944,15.943-.555-.058-1.102-.143-1.642-.251m5.242,.267c-.902-10.371-9.187-18.656-19.559-19.559,.81-8.531,7.615-15.336,16.146-16.145,.903,10.371,9.188,18.656,19.559,19.558-.81,8.531-7.615,15.336-16.146,16.146"/>
  <path class="cls-1" d="M1317.98,268.776c.331,.33,.868,.33,1.199,0l6.563-6.564c1.662,1.09,3.86,.865,5.268-.538l8.678-8.678c7.918-7.918,11.415-12.496,12.407-13.869l7.806,1.301c.167,.028,.335,.042,.504,.042,.817,0,1.601-.325,2.179-.902l5.097-5.097c.967-.974,1.177-2.469,.514-3.671l-2.858-5.146c.309-.508,.469-1.093,.46-1.688-.002-.799-.312-1.566-.866-2.141-1.039-.985-2.609-1.152-3.832-.407l-5.144-2.857c-1.203-.662-2.698-.453-3.672,.514l-5.095,5.097c-.702,.703-1.022,1.702-.86,2.682l1.301,7.807c-1.373,.991-5.951,4.492-13.869,12.407l-8.678,8.678c-.79,.785-1.233,1.853-1.23,2.966,.003,.818,.244,1.618,.694,2.301l-6.566,6.564c-.33,.331-.33,.868,0,1.199m48.738-37.154c.297,.541,.203,1.213-.232,1.651l-5.101,5.096c-.316,.316-.765,.459-1.206,.387l-6.706-1.118,10.66-10.66,2.585,4.644Zm-4.944-8.598c.549-.522,1.41-.522,1.958,0,.496,.558,.496,1.399,0,1.957l-12.027,12.029-1.959-1.959,12.028-12.027Zm-13.388,2.346l5.097-5.096c.438-.435,1.11-.529,1.65-.232l4.645,2.581-10.66,10.66-1.118-6.707c-.073-.44,.071-.889,.386-1.206m.071,10.788l2.141,2.141c-3.536,4.561-7.383,8.871-11.516,12.899l-3.524-3.525c4.028-4.132,8.338-7.979,12.899-11.515m-14.101,12.713l3.531,3.531-1.956,1.956-3.531-3.531,1.956-1.956Zm-3.155,3.154l3.531,3.532-1.957,1.954-3.53-3.53,1.956-1.956Zm-4.921,4.921l1.766-1.765,3.531,3.53-1.765,1.767c-.958,.992-2.539,1.021-3.532,.064-.993-.958-1.022-2.539-.064-3.532l.064-.064Z"/>
</svg>